<?xml version="1.0" encoding="utf-8"?>
<!-- Generator: Adobe Illustrator 29.5.0, SVG Export Plug-In . SVG Version: 9.03 Build 0)  -->
<svg version="1.1" id="Layer_1" xmlns="http://www.w3.org/2000/svg" xmlns:xlink="http://www.w3.org/1999/xlink" x="0px" y="0px"
	 viewBox="0 0 1133.86 1133.86" style="enable-background:new 0 0 1133.86 1133.86;" xml:space="preserve">
<style type="text/css">
	.st0{fill:#AC8A51;}
</style>
<g>
	<g>
		<g>
			<g>
				<path class="st0" d="M736.98,237.26c-0.4-0.69-1.36-0.66-2.06-0.71c-5.35,0.18-10.54,1.83-15.69,3.16
					c-17.67,4.99-34.99,11.15-52.26,17.37c-57.33,21.13-114.45,43.48-169.48,70.04c-8.05,4.04-16.15,8.17-23.54,13.18
					c-1.59,1-3.47,2.6-4.36,3.75c0.02-0.08,0.27-0.54,0.09-1.37c0,0-0.13-0.46-0.13-0.46c12.53,35.55,26.06,70.87,40.38,105.77
					c21.59,52.16,44.63,103.95,72.32,153.16c16.16,28.06,33.22,56.1,56.63,78.53c15.04,14.47,28.01,16.99,47.7,22.67
					c3.94,1.25,8.1,2.69,11.62,4.98c9.39,7.01,16.75,16.38,23.5,25.19c7.27,9.7,13.69,19.99,19.91,30.28
					c27.68,47.35,49.98,97.71,69.92,148.68c13.7,36.55,27.94,73.27,33.21,112.31c1.24,11.81,1.6,25.05-5.72,35.13
					c-9.33,12.29-25.8,14.39-39.02,19.11c-12.85,4.18-25.06,9.78-36.33,17.19c0,0,1.68-12.68,1.68-12.68l1.13,1.19
					c0.19,0.19,0.38,0.41,0.56,0.59c0,0,0.53,0.47,0.53,0.47c0.34,0.29,0.72,0.7,1,0.84l0.44,0.32c0,0,0.21,0.16,0.21,0.16
					l0.15,0.06c0.19,0.09,0.41,0.26,0.42,0.2c0.02-0.01,0.06,0.06,0.05,0.04c-0.02-0.03-0.05-0.04-0.07-0.02
					c-0.03,0.05-0.04-0.03-0.06-0.01c-0.01-0.01-0.06,0.06,0,0.01c0.04-0.02,0.08-0.03,0.13-0.02c0.17-0.08,0.35-0.14,0.54-0.2
					c0,0,0.28-0.14,0.28-0.14c0.69-0.32,1.49-0.74,2.15-1.11c3.42-1.99,7.15-3.73,11.06-4.82c60.94-18.87,120.91-41.15,179.74-65.81
					c2.74-1.29,6.03-2.25,8.85-3.04c4.35-1.17,9.67-2.27,12.74-4.27c0.41-0.31,0.49-0.45,0.5-0.47c0.01-0.02,0.05-0.05,0.07-0.44
					c0.09-1.32-0.55-3.07-1.11-4.56c0,0,7.91,5.01,7.91,5.01c-3.74,0.17-7.82,1.53-11.59,2.75c-19.31,6.13-53.23,27.05-72.56,21.53
					c-5.89-1.63-10.47-6.1-14.19-10.73c-9.31-11.96-15.44-25.59-21.49-39.06c-25.96-61.61-44.01-126.11-60.22-190.82
					c-5.47-23.21-10.99-46.58-14.13-70.39c-1.78-14.7-0.36-29.99,2.83-44.32c4.17-18.74,11.43-36.39,16.12-54.72
					c2.59-10.07,4.44-20.2,4.69-30.49c0,0,0.04-3.41,0.04-3.41s0.04-3.42,0.04-3.42s-0.16-3.51-0.16-3.51s-0.65-14.06-0.65-14.06
					s-0.17-3.52-0.17-3.52s-0.31-3.51-0.31-3.51c-0.44-4.75-1.13-12.74-1.57-17.56c-1.39-10.48-2.49-21.05-4.31-31.49
					c-3.55-22.9-8.58-46.85-14.12-69.35C783.96,371.45,760.49,304.23,736.98,237.26c6.95,17.64,13.85,35.3,20.56,53.04
					c21.82,57.61,42.15,116.23,56.45,176.23c3.23,13.27,6.45,28.52,8.84,41.93c2.08,10.5,3.47,21.2,5.05,31.8
					c0.21,2.05,0.93,8.5,1.16,10.69c0.43,4.31,1.19,10.06,1.4,14.27c0.44,7.32,1.38,18.2,1.21,25.3
					c-0.08,39.64-22.73,75.31-22.26,114.39c-0.11,9.15,1.45,18.08,3.13,27.12c15.3,73.67,36.86,146.52,63.32,216.95
					c5.79,14.65,24.3,61.46,36.86,66.82c3.19,0.72,7.39,0.05,10.89-0.86c4.07-1.03,8.29-2.54,12.52-4.19
					c12.97-5.1,26.05-11.83,39.58-16.67c4.83-1.64,9.78-3.25,16.02-3.71c0,0,5.77-0.43,5.77-0.43s2.15,5.43,2.15,5.43
					c0.63,1.6,1.25,3.24,1.69,5.14c1.88,6.85-0.05,15.07-6.36,19.48c-8.24,5.95-16.54,5.53-24.94,9.37
					c-59.3,25.19-119.69,47.79-181.23,66.89c-1.61,0.44-2.96,0.94-4.55,1.7c-1.67,0.82-3.69,2.02-5.37,2.89
					c-10.55,5.47-18.84,1.21-26.2-7.08c0,0-6.76-7.13-6.76-7.13c10.91-7.53,22.66-14.55,34.89-19.56
					c8.93-3.69,18.49-6.59,27.55-9.35c4.37-1.37,8.52-2.79,11.77-4.5c2.56-1.46,4.48-2.82,5.87-5.17c2.76-4.4,2.77-11.73,2.48-17.47
					c-0.87-11.22-3.23-22.27-5.9-33.42c-11.92-45.16-29.39-89.01-47.68-132c-12.09-27.99-25.06-55.61-39.75-82.31
					c-7.78-14.05-16.3-28.38-25.69-41.31c-5.74-7.85-11.81-15.17-18.69-21.22c-0.38-0.28-0.61-0.41-0.93-0.68
					c0,0-0.26-0.14-0.26-0.14l-0.53-0.29c-2.11-1.15-4.6-1.98-6.93-2.75c-8.95-2.8-18.69-5.15-27.61-9.06
					c-14.04-5.82-25.68-16.78-35.62-28c-31.34-36.56-53.11-79.84-73.89-122.83c-32.27-68.8-59.22-139.73-83.22-211.76
					c-0.98-3.63,1.39-6.03,3.59-8.06c3.79-3.27,8.08-5.52,12.29-7.91c16.36-8.76,33.41-15.96,50.45-23.13
					c56.76-23.24,114.41-44.37,173.19-61.89c8.84-2.51,17.72-5.03,26.77-6.67c2.63-0.4,5.36-0.99,8.01-0.51
					C736.42,236.72,736.83,236.88,736.98,237.26L736.98,237.26z"/>
				<path class="st0" d="M489.32,343.55c55.38-20.88,112.42-40.22,166.54-64.07c8.83-3.86,18.1-8.2,26.76-12.39
					c0,0,13.43-6.73,13.43-6.73c2.62-1.22,4.92-1.9,7.31-2.88c1.48-0.65,2.55-1.07,3.21-1.69c0,0,13.96,5.14,13.96,5.14
					c0.59,8.39,4.08,16.46,6.33,24.78c6.29,23.19,17.02,45.62,15.84,70.5c0,0-0.29,7.84-0.29,7.84l-7.82,0.25
					c-16.96,0.95-31.44,13.6-46.1,22.92c-8.43,5.59-18.06,10.78-28.28,12.78c-46.61,9.44-94.3-15.8-133.66,21.69
					c0,0-4.65,4.31-4.65,4.31s-2.23-5.53-2.23-5.53C509.55,395.72,499.1,368.28,489.32,343.55L489.32,343.55z M489.32,343.55
					c12.34,24.38,25.76,49.06,38.06,73.4c0,0-6.88-1.22-6.88-1.22s2.59-2.66,2.59-2.66s1.3-1.33,1.3-1.33
					c0.75-0.74,3.31-2.99,4.14-3.78c21.05-18.13,46.94-21.42,73.64-20.87c17.74,0.19,37.49,1.76,54.56-2.34
					c0.52-0.12,3.38-0.93,3.85-1.04c2.65-0.83,5.09-1.89,7.65-3.21c12.37-6.58,22.49-15.49,35.23-22.95
					c9.23-5.45,19.58-9.66,30.48-10.12c0,0-8.11,8.09-8.11,8.09s0.02-2.73,0.02-2.73c0.04-4.5-0.51-9.32-1.2-13.77
					c-2.81-16.6-9.76-32.75-13.76-49.34c-1.84-6.85-4.38-13.86-5.57-21.17c-0.38-2.29-0.7-4.66-0.73-7.39l13.96,5.14
					c-3.9,4.19-8.4,5.48-13.19,7.18c-2.06,0.52-7.49,3.27-9.46,4.16c-47.69,22.11-98.05,37.74-148.64,51.47
					C528.02,334.29,508.74,338.99,489.32,343.55L489.32,343.55z"/>
				<path class="st0" d="M608.47,602.48c-13.07-20.27-25.87-43.81-37.93-64.85c-10.15-18.27-20.38-36.51-29.57-55.3
					c-1.82-3.79-3.59-7.6-5.15-11.59c-0.98-2.66-2.25-5.65-2.19-8.75c0.45-6.19,2.55-12.29,6.58-17.17
					c20.68-24.97,81.09-17.59,111.21-18.45c5.23-0.12,10.09-0.27,14.92-1.34c2.48-0.61,4.94-1.39,7.34-2.3
					c11.23-4.29,20.67-11.04,31.01-17.85c14.58-9.8,30.96-19.62,49.56-20.57c0,0,7.36-0.41,7.36-0.41
					c3.08,19.01,9.46,43.92,13.9,63.01c16.41,71.71,48.15,210.38-52.52,230.98C672.09,686.82,634.16,639.98,608.47,602.48
					L608.47,602.48z M608.47,602.48c25.57,37.2,64.96,83.68,115.37,70.95c46.66-13.06,58.47-52.69,57.33-96.81
					c-1.32-42.75-12-84.29-21.98-125.78c-4.51-18.65-9.33-37.22-12.77-56.7c0,0,8.67,6.92,8.67,6.92
					c-7.08,0.27-14.14,2.25-21.1,5.37c-21.48,9.71-40.64,27.68-64.88,32.01c-5.91,1.04-12.14,0.92-17.82,0.75
					c-12.61-0.49-25.17-1.73-37.64-2.51c-20.21-0.97-54.14-3.44-69,12c-3.52,3.68-5.54,8.71-6.17,13.8
					c-0.03,2.23,0.82,4.44,1.52,6.77c8.47,23.45,20.16,45.69,31.53,67.86C583.23,559.22,595.07,581.33,608.47,602.48L608.47,602.48z
					"/>
			</g>
		</g>
		<g>
			<path class="st0" d="M206.28,123c19.81-0.71,38.71,13.7,45.8,32.07c7.25,18.24,5.96,38.98-3.59,55.86
				c-0.61-2.3-1.05-4.58-1.5-6.88c-2.74-14.2-5.22-29.51-10.58-42.57c-4.42-11.08-11.36-20.85-20.1-29.28
				C213.19,129.09,209.53,126.06,206.28,123L206.28,123z"/>
		</g>
		<g>
			<path class="st0" d="M298.3,39c-2.21,3.88-4.8,7.87-6.84,11.76c-5.86,10.64-9.59,22.03-10.53,33.92
				c-1.25,14.05,0.91,29.42,2.5,43.79c0.25,2.32,0.51,4.64,0.61,7.01c-1.81-1.6-3.43-3.33-4.94-5.15
				c-10.76-13.13-16.44-29.86-15.04-47.14C265.39,63.56,279.18,44.19,298.3,39L298.3,39z"/>
		</g>
		<g>
			<path class="st0" d="M507.07,179.15c19.81-0.71,38.71,13.7,45.8,32.07c7.25,18.24,5.96,38.98-3.59,55.86
				c-0.61-2.3-1.05-4.58-1.5-6.88c-2.74-14.2-5.22-29.51-10.58-42.57c-4.42-11.08-11.36-20.85-20.1-29.28
				C513.98,185.24,510.32,182.2,507.07,179.15L507.07,179.15z"/>
		</g>
		<g>
			<path class="st0" d="M599.1,95.14c-2.21,3.88-4.8,7.87-6.84,11.76c-5.86,10.64-9.59,22.03-10.53,33.92
				c-1.25,14.05,0.91,29.42,2.5,43.79c0.25,2.32,0.51,4.64,0.61,7.01c-1.81-1.6-3.43-3.33-4.94-5.15
				c-10.76-13.13-16.44-29.86-15.04-47.14C566.18,119.7,579.97,100.33,599.1,95.14L599.1,95.14z"/>
		</g>
		<g>
			<path class="st0" d="M658.01,136.63c-2.21,3.88-4.8,7.87-6.84,11.76c-5.86,10.64-9.59,22.03-10.53,33.92
				c-1.25,14.05,0.91,29.42,2.5,43.79c0.25,2.32,0.51,4.64,0.61,7.01c-1.81-1.6-3.43-3.33-4.94-5.15
				c-10.76-13.13-16.44-29.86-15.04-47.14C625.09,161.18,638.88,141.82,658.01,136.63L658.01,136.63z"/>
		</g>
		<g>
			<path class="st0" d="M263.84,455.52c-1.43,13,4.27,19.33,12.15,28.57c6.53,7.55,12.25,17.54,11.48,28.15
				c-0.64,15.68-13.17,23.61-24.89,30.95c-2.34,1.6-3.79,2.68-4.67,3.88c-2.86,5.3-1.68,11.78-2.45,17.88
				c-0.4,5.58-3.33,11.04-9.82,9.38c1.38-0.61,2.69-1.34,3.37-2.32c0.71-0.94,0.77-1.91,0.67-3c-0.29-2.45-1.33-5.03-2.16-7.52
				c-0.92-2.74-1.88-5.7-2.37-9.07c-3.27-19.53,16.6-23.92,24.23-36.48c5.33-11.12-4.23-22.01-8.36-32.83
				C257.09,474.03,257.06,463.21,263.84,455.52L263.84,455.52z"/>
		</g>
		<g>
			<path class="st0" d="M346.39,430.99c10.88,24.75,15.62,55.87,5.53,81.78c-3.67,8.87-9.82,17.67-18.72,21.81
				c3.12-8.13,4.99-16.68,5.83-25.24c1.76-16.94,1.22-33.87,2.56-51.17C342.37,449.09,343.38,439.74,346.39,430.99L346.39,430.99z"
				/>
		</g>
		<g>
			<path class="st0" d="M312.15,558.93c12.56-2.1,19.11,8.96,18.11,20.32c-0.72,9.69-4.46,18.18-9.08,26.25
				c-6.74,11.45-15.33,21.16-25.46,29.5c-3.38,2.77-6.88,5.29-10.67,7.84c0.31-2.3,0.97-4.49,1.66-6.61
				c6.1-17.74,16.84-33.41,25.7-49.51c3.03-5.97,7.06-12.51,6.43-18.96C318.32,564.14,315.24,561.28,312.15,558.93L312.15,558.93z"
				/>
		</g>
		<g>
			<path class="st0" d="M646.61,544.38c-2.28,3.14-4.41,6.77-3.86,10.39c1.25,6.36,7,11.46,11.62,16.3
				c13.13,12.86,27.93,24.78,38.88,40.01c1.28,1.83,2.54,3.73,3.5,5.85c-4.37-1.35-8.45-2.76-12.48-4.43
				c-12.11-5.08-23.13-11.89-32.88-20.92c-6.75-6.4-12.78-13.45-16.26-22.52C630.89,558.48,633.98,545.98,646.61,544.38
				L646.61,544.38z"/>
		</g>
		<g>
			<path class="st0" d="M685.16,456.94c11.74-0.92,20.24,6.27,22.34,17.81c1.89,8.99,0.39,19.39,0.57,27.62
				c0.16,4.49,0.44,7.9,3.08,11.17c3.8,4.3,10.59,5.5,16.14,8.07c1.77,0.76,3.48,1.64,5.14,2.73c9.91,7.07,18.6,22.79,11.15,34.38
				c-2.86,4.36-8.02,6.87-12.82,7.46c4.01-3.59,7.72-8.37,6.84-13.57c-0.99-6.12-7.1-12.35-12.79-15.39
				c-4.74-1.88-11.08-2.74-16.58-5.34c-12.25-5.42-17.55-17.32-16.19-30.06c0.57-6.79,2.08-12.64,3.18-18.19
				c1.1-5.53,1.93-10.62,0.79-15.08C694.72,463.32,689.93,459.74,685.16,456.94L685.16,456.94z"/>
		</g>
		<g>
			<g>
				<path class="st0" d="M155.47,1081.61c75.04-1.4,164.47-2.61,239.51-3.48c0,0-3.47,3.42-3.47,3.42
					c-0.09-3.18,0.11-6.89-1.16-9.72c-0.16-0.24-0.13-0.15-0.09-0.13c0.03,0.02-0.21-0.06-0.7-0.03c-3.74,0.39-7.58,1.48-11.99,1.22
					c-3.5-0.16-5.99-0.58-9.32-0.54c-18.09-0.77-55.17,3.14-66.67-13.95c-0.61-1.07-1.27-2.12-1.6-3.35
					c-2.42-15.19-2.75-30.43-3.94-45.62c-3.88-50.48-3.73-101.15,0.15-151.61c3.08-39.52,7.51-79.28,17.91-117.76
					c3.17-11.09,6.79-21.83,12.1-32.24c14.7-27.31,42.19-45.07,56.13-72.37c3.02-5.94,5.48-12.15,7.78-18.62
					c19.4-59.03,27.78-121.54,34.51-183.21c3.52-37.17,6.06-74.56,4.35-111.78c-0.67-11.84-1.72-24.21-4.84-35.4
					c-0.77-2.64-1.7-5.17-2.75-7.11c-0.52-0.96-1.07-1.77-1.51-2.25c-0.44-0.49-0.72-0.64-0.61-0.56c0,0-16.87-3.01-16.87-3.01
					c-24.04-5-49.45-5.09-73.95-6.11c-50.04-1.45-100.29-2.8-150.28-0.92c-9.11,0.43-18.29,0.94-27.14,2.38
					c-1.83,0.37-3.43,0.62-4.95,1.22c-0.04,0.02-0.08,0.03-0.13,0.04c-0.05,0.01,0.03-0.01,0.06-0.03c0.04-0.02,0.08-0.04,0.12-0.07
					s0.07-0.06,0.11-0.09c-0.01-0.01,0.1-0.08,0.28-0.22c0.3-0.24,0.56-0.53,0.77-0.85c0,0,1.67-4.98,1.67-4.98
					c1.06,123.3-14.99,280.18,43.84,391.41c1.02,1.79,2.22,4.23,3.33,5.88c6.34,9.9,16.79,16.14,23.9,25.96
					c20.67,29.24,28.02,91.18,31.24,127.06c5.37,66.97,4.88,134.33-3.19,201.01c-1.17,9.51-2.36,19.04-4.42,28.52
					c-1.82,7.17-3.44,15.63-10.45,19.66c-2.47,1.28-5.17,1.57-7.66,1.57c-5.01-0.07-9.69-0.94-14.42-1.49
					c-14.14-1.91-28.49-1.43-42.48,1.52c-3.56,0.81-6.96,1.53-10.5,2.28c-1.6,0.5-3.66,0.46-4.46,2.11c-0.2,0.5-0.21,1.09-0.18,1.67
					C153.86,1074.61,154.86,1078.1,155.47,1081.61c-0.75-3.52-1.88-6.93-2.4-10.5c-0.55-3.26,2.49-3.86,4.89-4.47
					c0,0,3.48-0.86,3.48-0.86c11.55-3.21,23.44-5.37,35.5-5.41c9.47-0.28,19.23,1.55,28.54,1.7c4.56,0.01,8.35-1.8,10.41-5.96
					c2.1-3.89,3.16-8.54,4.07-13.12c1.74-9.25,2.66-18.75,3.54-28.23c2.62-28.46,4.12-57,4.07-85.61
					c-0.23-56.99-3.02-114.32-13.87-170.27c-3.75-18.21-8.46-36.66-16.31-53.41c-0.81-1.66-2.12-4.38-3.08-5.94
					c-3.33-5.81-7.63-10.27-12.76-14.93c-5.79-5.16-12.57-11.38-16.73-18.45c-20.98-35.22-32.71-74.96-40.1-114.94
					c-17.11-94.73-11.42-191.67-12.03-287.2c0,0-0.02-2.93-0.02-2.93s1.69-2.05,1.69-2.05c0.49-0.59,1.03-1.16,1.62-1.67
					c0.32-0.29,0.58-0.48,0.74-0.58c1.79-1.24,3.96-2.14,6.01-2.7c11.43-2.96,23.09-3.2,34.64-3.96
					c63.21-2.43,126.44-0.76,189.59,2.04c17.5,0.65,35.18,4.1,52.33,7.21c1.99,0.35,4.35,0.7,6.22,1.47
					c14.05,5.89,16.77,27.85,18.64,40.76c4.71,44.53,1.12,89.4-3.07,133.71c-7.09,63.06-16.01,126.35-36.39,186.76
					c-2.48,6.84-5.29,13.82-8.75,20.46c-8.69,16.58-22.48,30.92-34.89,43.97c-8.53,9.07-16.67,18.09-22.05,28.07
					c-2.71,5.15-4.99,10.71-7.1,16.36c-1.94,5.57-3.96,11.74-5.48,17.47c-15.56,60.3-19.83,123.29-21.81,185.42
					c-0.74,25.1,0.37,50.03,1.49,75.09c0.7,14.06,1.19,28.14,2.55,42.03c0.08,0.66,0.21,1.52,0.25,1.71
					c-0.01-0.05-0.03-0.1-0.06-0.14c-0.04-0.07-0.06-0.08,0,0.01c1.12,2.47,3.03,3.99,5.78,5.55c4.96,2.52,10.94,3.79,16.61,4.53
					c15.3,2.14,31.35,0.99,46.78,2.71c3.84,0.3,7.44-0.78,11.45-0.95c10.59-0.2,8.97,13.67,8.95,20.78
					C322.09,1084.24,231.78,1083.01,155.47,1081.61L155.47,1081.61z"/>
				<path class="st0" d="M356.39,618.45c-21.31,36.39-65.95,63.22-106.63,40.77c-24.91-13.39-37.97-39.49-47.94-64.73
					c-12.49-32.46-20.51-66.36-26.23-100.59c-3.37-21.68-6.36-43.3-6.25-65.37c0.11-2.74,0.09-5.82,0.87-8.52
					c2.28-7.04,7.86-11.48,14.44-13.97c1.55-0.56,3.38-0.95,5.14-1.12c0,0,3.93-0.15,3.93-0.15c1-0.08,2.74,0.09,3.77,0.13
					c1.13,0.01,2.56,0.18,3.64,0.32c4.38,0.48,9.3,1.48,13.58,2.47c19.57,4.41,39.51,12.19,59.51,8.73
					c9.97-2.4,19.57-6.23,29.64-9.67c38.63-13.51,104.64-35.52,97.72,30.82c-2.33,27.99-8.22,55.52-14.34,82.83
					c-5.89,25.08-12.26,50.08-20.69,74.43C363.71,602.92,360.67,610.99,356.39,618.45L356.39,618.45z M356.39,618.45
					c8.22-15.09,12.77-31.86,17.37-48.32c10.65-41.37,18.44-83.81,20.48-126.5c0.08-13.92,1.96-34.52-14.73-39.24
					c-25.34-6.51-69.46,17.21-94.9,25.44c-27.13,9.91-56.01-2.69-82.59-7.47c0,0-2.84-0.38-2.84-0.38
					c-0.47-0.06-0.96-0.15-1.41-0.18l-1.35-0.08c0,0-1.35-0.09-1.35-0.09l-0.68-0.05c-0.22,0-0.42,0.01-0.63,0.02l-2.5,0.06
					c-1.74,0.15-3.73,1.44-4.83,2.83c-0.23,0.27-0.31,0.49-0.24,0.28c-0.03-0.01,0.06-0.15,0.05-0.23
					c-0.13,1.03-0.31,3.15-0.34,4.51c-0.34,29.27,3.41,58.95,7.53,88.06c5.3,33.41,11.76,67.12,25.17,98.3
					c5.82,13.48,13.71,26.16,25.22,35.39C283.18,683.26,333.42,657.64,356.39,618.45L356.39,618.45z"/>
				<path class="st0" d="M396.26,366.33c-56.46-18.49-106.98,26.01-164.02,22.4c-15.29-1.19-26.54-7.49-40.43-8.11
					c-6.77-0.51-13.88,2.26-20.13,4.15c-0.62-6.18-2.83-27.3-3.49-33.85c-2.13-21.64-4.99-51.25-6.96-72.91c0,0-0.88-9.51-0.88-9.51
					s9.54,0.29,9.54,0.29c55.92,1.56,111.82,3.67,167.69,6.64c17.79,0.93,41.14,2.32,55.87,3.28c2.81,0.06,5.7,1.12,7.93,2.78
					c6.16,4.6,7.87,12.14,8.47,19.24c-0.39,5.69-0.88,11.39-1.41,17.08C407.45,326.22,404.28,364.23,396.26,366.33L396.26,366.33z
					 M396.26,366.33c7.11-2.67,6.14-40.75,6.38-48.81c0.01-5.61-0.07-11.21-0.13-16.83c0,0,0.02,0.52,0.02,0.52
					c-0.18-0.89-0.33-1.79-0.52-2.66c-0.56-2.41-1.47-5.01-2.77-6.96c-1.48-2.23-3.44-3.85-6.04-3.67c0,0,0.82-0.05,0.81-0.05
					c0,0-0.23,0.04-0.23,0.04c-74.79,0.77-149.58-0.25-224.35-2.2c0,0,8.66-9.23,8.66-9.23c1.97,21.67,4.47,51.29,6.26,72.97
					c0,0,1.9,24.34,1.9,24.34s-10-6.79-10-6.79c5.38-1.52,11.04-2.01,16.38-1.6c14.31,0.87,27.17,7.87,40.82,9.75
					c1.68,0.24,4.63,0.33,6.37,0.43C291.92,377.3,345.4,341.46,396.26,366.33L396.26,366.33z"/>
			</g>
		</g>
	</g>
</g>
</svg>
