<?xml version="1.0" encoding="utf-8"?>
<!-- Generator: Adobe Illustrator 29.8.2, SVG Export Plug-In . SVG Version: 9.03 Build 0)  -->
<svg version="1.1" id="Layer_1" xmlns="http://www.w3.org/2000/svg" xmlns:xlink="http://www.w3.org/1999/xlink" x="0px" y="0px"
	 viewBox="0 0 1133.86 1133.86" style="enable-background:new 0 0 1133.86 1133.86;" xml:space="preserve">
<style type="text/css">
	.st0{fill:#AC8A51;}
	.st1{fill:#A56D29;}
</style>
<g>
	<g>
		<g>
			<g>
				<path class="st0" d="M-996,1069.97c-5.49,0.23-16.81,9.46-21.07,5.16c-3.18-3.25-4.87-7.57-6.76-11.6
					c-2.37-5.46-4.4-11.04-6.32-16.66c-4.64-14.13-9.05-28.37-11.44-43.1c-1.28-9.08,3.46-17.92,4.79-26.35
					c0.65-4.28,0.14-8.62-0.28-12.92c-0.77-7.29-2.17-14.5-3.92-21.63c-4.16-17.2-10.23-33.86-16.46-50.43l-0.39-1.04l-0.1-0.26
					l-0.05-0.13l-0.02-0.06c0.02,0.04-0.09-0.2,0.07,0.15c0.25,0.42,0.56,0.7,0.94,0.81c-9.51,2.13-20.87,6.51-30.71,10.21
					c-10.13,4.07-20.58,7.79-30.02,13.29c-0.32,0.24-0.6,0.4-0.83,0.64c0.05-0.06,0.06-0.09,0.1-0.18c0.05-0.13,0.19-0.44,0.09-0.96
					l-0.06-0.23c8.85,24.89,18.22,50.42,32.87,72.52c3.85,5.24,7.71,10.25,14.17,11.89c2.24,0.75,4.96,1.1,6.81,2.82
					c6.67,6.43,10.66,14.86,14.8,22.97c3.94,8.09,7.42,16.37,10.59,24.76c2.67,7.72,10.07,25.92,6.85,33.19
					c-1.16,2.41-3.85,3.33-6.13,4.02c-4.28,1.22-8.36,2.61-12.08,5.04l0.18-1.32c0.69,0.73,1.37,1.59,2.39,1.22
					c1.01-0.48,2.43-1.26,3.64-1.52c12.47-3.69,24.74-8.05,36.87-12.77c2.15-0.79,5.13-2.17,7.32-2.77
					C-997.5,1074.09-994.53,1073.48-996,1069.97L-996,1069.97z M-996,1069.97c1.56,3.43-1.29,4.3-4.11,5.02
					c-2.12,0.63-5.09,2.18-7.19,3.01c-12.01,5.09-24.21,9.73-36.61,13.76c-1.32,0.32-2.19,0.97-3.51,1.58
					c-2.06,0.89-3.77-0.98-5-2.34c2.16-1.51,4.47-2.83,6.9-3.88c3.04-1.39,6.41-1.99,9.33-3.4c2.93-1.47,2.55-5.02,2.21-7.82
					c-1.32-8.69-4.62-17.08-7.76-25.29c-3.27-8.27-6.85-16.43-10.86-24.34c-4.04-7.61-8.06-15.74-14.28-21.75
					c-0.63-0.63-1.46-0.85-2.34-1.15c-3.33-1-6.76-1.71-9.8-3.87c-3.92-2.88-6.86-6.48-9.55-10.17
					c-5.29-7.44-9.52-15.43-13.46-23.51c-7.78-16.22-14.32-32.89-20.2-49.89c-0.38-1.36,0.33-2.28,1.16-3.03
					c2.19-1.79,4.73-2.89,7.19-4.13c8.1-3.83,16.41-7.11,24.75-10.32c10.2-3.72,20.3-7.82,30.93-10.2c1.43-0.25,3.25-0.27,3.8,1.52
					c9.16,25.52,22.64,60.89,20.38,88.06c-1.54,8.99-6.2,16.64-5.19,25.65c2.16,14.53,6.32,28.82,10.51,42.9
					c1.76,5.64,3.64,11.25,5.85,16.72c1.74,3.98,3.31,8.28,6.27,11.48C-1012.9,1078.53-1001.2,1069.95-996,1069.97L-996,1069.97z"/>
				<path class="st0" d="M-1114.74,915.32c15.34-5.79,30.89-10.92,45.65-18.04l3.17-1.59c0.84-0.42,2.05-0.7,2.48-1.09l3.29,1.21
					c0.12,1.85,0.98,3.95,1.49,5.85c0.09,0.41,0.44,1.57,0.57,1.99c1.49,4.73,3.43,9.53,3.18,14.65l-0.07,1.82l-1.83,0.09
					c-4.01,0.23-7.43,3.2-10.89,5.42c-3.89,2.88-9.07,3.77-13.75,3.54c-10-0.38-17.75-2.23-25.61,5.56
					C-1109.71,928.29-1112.22,921.67-1114.74,915.32L-1114.74,915.32z M-1114.74,915.32c3,5.9,6.06,11.56,8.99,17.33l-1.62-0.29
					c1.65-1.64,3.44-3.24,5.6-4.29c6.19-3.27,13.85-2.34,20.33-2.37c4.26,0.04,8.21-0.7,11.61-3.28c3.88-2.59,7.72-5.88,12.85-6.18
					l-1.91,1.9c0.17-5.33-2.25-10.4-3.53-15.55c-0.61-2.25-1.43-4.24-1.49-6.74l3.29,1.21c-1.32,1.32-2.53,1.4-3.8,1.94
					C-1080.4,906.6-1097.6,911.24-1114.74,915.32L-1114.74,915.32z"/>
				<path class="st0" d="M-1086.6,976.46c-4.23-6.66-8-13.59-11.83-20.48c-1.84-3.49-3.79-6.91-5.32-10.62
					c-0.23-0.61-0.51-1.28-0.52-2c0.96-10.31,17.57-8.34,24.9-8.49c3.87,0.14,7.23,0.01,10.63-2c5.28-2.91,10.1-7.6,16.56-7.9
					l1.68-0.09c3.11,17.72,16.84,55.05-2.54,66.94C-1067.43,1000.1-1079.05,987.81-1086.6,976.46L-1086.6,976.46z M-1086.6,976.46
					c6.21,9.07,16.23,20.56,28.42,16.35c6.01-1.95,10.01-6.55,11.43-12.68c1.55-6.38,0.95-13.23-0.03-19.72
					c-1.65-11.24-5.15-21.92-7.22-33.15l2.03,1.62c-5.32,0.22-10.23,4.65-15.18,7.06c-3.58,2.07-8.33,2.23-12.33,1.79
					c-6.28-0.23-22.96-3.13-23.62,5.94c1.09,4.19,3.24,8.13,5.12,12.08C-1094.47,962.8-1090.74,969.76-1086.6,976.46L-1086.6,976.46
					z"/>
			</g>
		</g>
		<g>
			<path class="st0" d="M-1181.58,863.24c10.32-0.04,14.77,12.7,9.97,20.76c-0.93-4.08-1.34-7.97-2.85-11.67
				C-1175.94,868.58-1178.42,865.99-1181.58,863.24L-1181.58,863.24z"/>
		</g>
		<g>
			<path class="st0" d="M-1159.84,843.4c-3.45,5.15-4.78,10.43-4.01,16.5c0.17,1.99,0.48,4.03,0.64,6.29
				C-1170.19,859.91-1169.71,846.42-1159.84,843.4L-1159.84,843.4z"/>
		</g>
		<g>
			<path class="st0" d="M-1110.55,876.5c10.32-0.04,14.77,12.7,9.97,20.76c-0.93-4.08-1.34-7.97-2.85-11.67
				C-1104.91,881.83-1107.39,879.25-1110.55,876.5L-1110.55,876.5z"/>
		</g>
		<g>
			<path class="st0" d="M-1088.81,856.66c-3.45,5.15-4.78,10.43-4.01,16.5c0.17,1.99,0.48,4.03,0.64,6.29
				C-1099.16,873.16-1098.68,859.68-1088.81,856.66L-1088.81,856.66z"/>
		</g>
		<g>
			<path class="st0" d="M-1074.9,866.46c-3.45,5.15-4.78,10.43-4.01,16.5c0.17,1.99,0.48,4.03,0.64,6.29
				C-1085.25,882.96-1084.77,869.48-1074.9,866.46L-1074.9,866.46z"/>
		</g>
		<g>
			<path class="st0" d="M-1167.98,941.76c-0.71,4.97,4.43,6.75,5.41,11.38c0.98,4.77-2.23,7.23-5.71,9.32
				c-0.48,0.32-0.87,0.65-1.03,0.83c-1.25,1.35,0.57,7.12-2.97,6.53c1.58-0.61,0.83-1.74,0.45-3.04c-0.51-1.52-0.94-3.09-0.32-4.83
				c1.2-2.76,4.08-3.55,5.47-5.92c0.93-2.01-0.03-3.76-1.05-5.8C-1169.15,947.84-1170.17,944.07-1167.98,941.76L-1167.98,941.76z"/>
		</g>
		<g>
			<path class="st0" d="M-1148.49,935.97c3.19,7.12,4.78,19.89-3.11,24.46C-1148.62,952.4-1151.01,944.11-1148.49,935.97
				L-1148.49,935.97z"/>
		</g>
		<g>
			<path class="st0" d="M-1156.58,966.18c2.95-0.52,4.55,2.25,4.27,4.8c-0.48,4.51-2.99,7.97-5.89,11.1c-1.42,1.47-3,2.74-4.78,3.92
				c0.9-4.06,3.13-7.38,5.08-10.84c1.2-2.29,2.96-4.42,2.89-6.89C-1155.08,967.45-1155.92,966.69-1156.58,966.18L-1156.58,966.18z"
				/>
		</g>
		<g>
			<path class="st0" d="M-1077.59,962.74c-0.48,0.68-1.07,1.65-0.9,2.46c0.65,2.38,2.95,3.91,4.76,5.76
				c2.86,2.75,5.95,5.29,7.99,8.91c-2.04-0.62-3.92-1.38-5.71-2.38c-3.68-2.15-7.08-4.74-8.84-8.93
				C-1081.3,966.22-1080.57,963.09-1077.59,962.74L-1077.59,962.74z"/>
		</g>
		<g>
			<path class="st0" d="M-1068.49,942.1c4.04-0.26,5.58,3.17,5.49,6.57c0.16,2.44-0.69,4.83,0.64,6.79c1.18,1.4,4.68,1.65,6.09,3.48
				c2.87,2.78,3.4,8.21-1.46,8.95c0.53-0.52,1.03-1.02,1.32-1.59c1.01-1.93-0.57-3.74-2.12-4.89c-0.17-0.12-0.41-0.31-0.6-0.37
				c-3.26-0.92-6.74-1.74-7.61-5.73c-0.46-2.37,0.2-4.82,0.61-6.91C-1065.46,945.56-1065.65,943.61-1068.49,942.1L-1068.49,942.1z"
				/>
		</g>
		<g>
			<g>
				<path class="st0" d="M-1130.89,897.54c-10.87-2.34-22.03-2.11-33.09-2.4c-10.35-0.03-20.8-0.45-31.08,0.92
					c-0.58,0.04-1.36,0.32-1.77,0.62l0.05-0.16c0.41,26.84-1.67,54.48,6.52,80.35c0.87,2.82,2.19,5.84,3.36,8.52
					c0.22,0.41,1.7,3.16,1.97,3.65c1.99,4.14,6.85,6.13,8.41,10.6c8.18,18.26,8.3,54.31,6.2,74.43c-0.25,2.27-0.48,4.53-0.96,6.9
					c-0.42,1.92-1.02,4.55-3.19,5.73c-3.06,1.41-6.25-0.1-9.32,0.11c-2.96-0.05-6.13,0.62-9.02,1.35c0.42-0.21,0.73-0.75,0.73-1.17
					c-0.01,0.01,0.05,0.3,0.1,0.53l0.37,1.67l-1.95-1.58l28.28,0.06l28.28,0.15l-1.78,1.76c0.02-0.61,0-1.36-0.12-1.84
					c-0.03-0.03,0.14,0.28,0.47,0.38c0.26,0.08,0.15,0.02-0.02,0.05c-0.96,0.12-1.86,0.33-2.91,0.2
					c-5.19-0.73-15.12,1.04-18.32-4.33c-0.46-0.94-0.41-2.13-0.52-3.11c-1.32-18.3-1.08-36.65,1.5-54.82
					c0.79-5.65,1.82-11.36,3.45-16.85c0.98-3.3,2.23-6.72,4.22-9.55c4.11-5.61,9.82-9.56,12.75-15.87
					c4.54-10.41,6.4-21.81,8.28-32.96C-1128.64,942.54-1123.21,900.47-1130.89,897.54L-1130.89,897.54z M-1130.89,897.54
					c5.16,1.61,3.96,21.28,3.87,26.17c-0.44,9.11-1.36,18.18-2.63,27.21c-1.76,11.23-3.48,22.69-7.8,33.29
					c-3.14,7.48-10.73,11.96-14.06,19.15c-0.69,1.41-1.27,3.21-1.78,4.69c-4.08,14.74-4.82,30.22-5.13,45.45
					c-0.05,9.64,0.59,19.38,1.53,28.96l0.01,0.09c0-0.02,0-0.03-0.02-0.04c0.05,0.11,0.17,0.31,0.3,0.42
					c2.18,1.77,5.69,1.62,8.6,1.77c2.22,0.06,4.53-0.04,6.93,0.19c0.63,0.12,1.5-0.16,2.18-0.22c0.39-0.03,0.86-0.13,1.67,0.12
					c1.39,0.56,1.75,1.77,1.9,2.86c0.19,1.37,0.06,2.43,0.11,3.71l-1.79,0.01c-14.91,0.06-43.24,0.23-58.15,0.21
					c-0.28-1.45-0.74-2.85-0.92-4.35c-0.15-1.24,0.63-2.43,1.82-2.81c0.91-0.27,2.4-0.59,3.34-0.81c3.46-0.8,7.19-0.97,10.73-0.55
					c1.4,0.11,2.8,0.49,3.87,0.17c0.09-0.06,0.22-0.12,0.39-0.45c1.22-2.64,1.35-6.1,1.77-9.13c0.72-6.67,1.19-13.35,1.3-20.08
					c0.18-8.96-0.07-17.94-0.83-26.86c-0.83-8.73-1.84-17.86-5.3-25.92c-1.47-4.31-6.33-6.38-8.07-10.57l-1.57-3.08l-0.39-0.77
					c-1.16-2.78-2.45-5.95-3.28-8.86c-5.29-17.49-5.52-35.86-5.41-53.94c0.09-9.03,0.44-18.05,0.44-27.07v-0.1
					c0.34-0.36,0.74-0.51,1.1-0.61c5.11-1.08,10.4-0.85,15.59-0.99c5.54-0.03,11.08,0.06,16.62,0.17
					C-1152.92,895.33-1141.76,895.15-1130.89,897.54L-1130.89,897.54z"/>
				<path class="st0" d="M-1146.13,980.23c-5.08,8.83-16.28,15.18-25.86,9.23c-5.44-3.26-8.42-9.23-10.64-14.9
					c-2.96-7.68-4.83-15.68-6.19-23.75c-0.76-5.09-1.52-10.22-1.46-15.43c0.08-0.8-0.04-1.01,0.21-2.01
					c2.53-6.15,10.3-2.78,14.93-1.76c3.67,0.89,7.32,1.73,10.95,0.58c8.18-2.35,28.49-12.47,28.82,3c-0.23,7.41-1.9,14.7-3.47,21.9
					C-1140.81,964.91-1142.46,972.99-1146.13,980.23L-1146.13,980.23z M-1146.13,980.23c3.6-7.27,5.12-15.38,6.74-23.26
					c1.15-6.45,2.1-12.96,2.23-19.51c-0.04-1.34-0.04-3-0.38-4.29c-2.51-9.72-21.73,2.29-28.02,3.18
					c-5.51,0.91-11.42-1.36-16.33-2.29c-1.16-0.24-2.16-0.35-3.23-0.3c-0.41-0.02-1.09,0.51-1.22,0.74
					c-0.27,4.95,0.34,10.64,0.92,15.84c0.97,7.95,2.29,15.92,4.66,23.57c1.8,5.64,4.19,11.44,9.23,14.84
					C-1162.32,995.09-1151.2,988.85-1146.13,980.23L-1146.13,980.23z"/>
				<path class="st0" d="M-1136.71,920.7c-12.65-4.17-24.41,5.3-36.96,5.29c-4.85,0.44-9.45-2.97-13.94-1.61l-2.1,0.67l-0.25-2.26
					c-0.86-7.54-1.7-17.59-2.46-25.2c8.68,0.29,20.06,0.61,28.66,1.02c8.8,0.36,17.6,0.84,26.39,1.4l-0.19,0.01
					c0.71-0.07,1.5,0.23,2.06,0.64c1.46,1.06,1.9,3,1.99,4.59c-0.31,3.99-0.62,8.01-1.48,11.93
					C-1135.35,918.31-1135.53,920.16-1136.71,920.7L-1136.71,920.7z M-1136.71,920.7c1.06-0.69,0.99-2.47,1.21-3.61
					c0.38-3.95,0.31-7.92,0.27-11.89c-0.17-0.71-0.68-3.13-2.21-3.02c-3.45,0.04-9.04,0.07-13.22,0.05
					c-12.73,0.01-26.83-0.26-39.63-0.57l2.04-2.18l0.99,11.49c0.34,3.83,0.65,7.66,0.93,11.49l-2.35-1.59
					c2.44-0.71,5.1-0.39,7.43,0.28C-1166.67,927.43-1151.21,913.68-1136.71,920.7L-1136.71,920.7z"/>
			</g>
		</g>
	</g>
</g>
<g>
	<g>
		<path class="st1" d="M1064.48,1083.35c9.76-105.34,11.77-211.18,11.84-316.91l0.05,0.91c-0.74-5.05-2.4-9.86-4.95-14.09
			l-3.07-5.09l4.97-3.72c1.75-1.31,3.46-2.76,5.12-4.31l-2.24,4.99c-0.16-5.23-0.48-64.41-0.61-67.98
			c-0.63-37.36-3.72-74.79-9.77-111.64c-32.94-211.56-169.66-423.66-383.18-485.25c-155.46-45.3-318.37,6.5-431.84,118.97
			C133.24,314.12,69.71,477.04,59.76,639.75c-2.09,28.22-1.59,76.64-2.07,105.37l-2.25-5.01c1.66,1.55,3.37,3,5.12,4.31l5,3.72
			l-3.09,5.13c-2.55,4.23-4.21,9.03-4.95,14.08c0.22,74.22,1.18,159.24,5.91,236.87c1.49,26.4,3.52,52.77,5.95,79.13
			c-3.94-26.17-7.08-52.47-9.9-78.81c-8.23-79.17-12.36-158.73-14.86-238.27c0.7-6.82,2.71-13.61,6.14-19.75l1.91,8.86
			c-3.36-2.22-5.7-4.53-8.64-7.04l-0.06-3.08c-0.26-17.26-1.53-67.11-1.39-83.42c0.9-196.23,80.74-397.97,236.78-521.75
			C431.65,18.48,636.71,2.06,803.56,104.73c186.26,114,284.82,335.89,287.57,549.48c0.53,20.84-0.98,69.68-1.26,91.06l-0.06,3.06
			c-2.72,2.52-5.57,4.85-8.63,7.03l1.9-8.81c3.33,5.96,5.33,12.56,6.07,19.17C1085.97,871.85,1079.85,978.2,1064.48,1083.35
			L1064.48,1083.35z"/>
	</g>
	<g>
		<path class="st1" d="M69.37,1083.35c59.98-1.52,155.65-3.26,216.44-4.36l-4.23,5.4c-20.8-77.54-56-152.25-108.47-213.33
			c-19.84-23.23-42.41-43.91-66.84-62l9.71-7.05c15.07-10.52,19.84-31.66,10.11-47.38l-5.02-8.48
			c14.43-7.29,28.16-15.63,40.66-26.31C286.15,614.41,385.98,340,361.31,178.79l-2.91-21.33c36.56,12.77,74.42,22.6,113.01,27.79
			c94.35,12.55,192.92,8,283.82-21.18l20.26-6.66l-2.91,21.37c-0.56,4.23-1.48,10.47-1.92,14.35c-0.36,4.83-0.94,9.75-1.24,14.52
			c-0.68,12.72-0.98,26.5-0.43,39.19c5.69,130.21,56.02,273.94,126.64,383.29c28.96,42.97,62.32,85.95,108.23,111.23l9.01,4.78
			l-5.04,8.51c-9.77,15.71-4.91,36.84,10.1,47.33l9.75,7.08l-9.32,7.16c-85.02,65.91-138.44,165.5-166.04,268.17l-4.25-5.43
			c34.62,0.42,128.56,2.49,162.33,3.13l54.11,1.24c-27.17,0.42-81.11,2-108.22,2.39l-108.22,1.99l-5.54,0.1l1.29-5.53
			c24.82-106.55,77.45-210.21,163.63-279.99l0.43,14.24c-8.3-5.65-15.03-13.57-19.11-22.77c-7.06-15.36-5.96-34.14,2.52-48.66
			l3.96,13.29c-60.53-31.66-105.2-93.69-139.93-150.81c-65.14-110.69-115.85-261.83-112.7-391.08c0.3-9.69,1.05-21.75,2.32-31.44
			l1.38-10.5l17.35,14.71c-122.56,39.55-270.82,39.59-393.46-0.02l17.32-14.69l1.38,10.5c19.81,168.64-82.35,441.98-214.7,550.12
			c-10.91,8.8-22.77,16.68-35.6,23.17l3.95-13.24c3.27,5.77,5.62,12.23,6.62,18.96c2.58,16.69-3.42,34.3-15.48,46.08
			c-2.39,2.33-4.97,4.46-7.72,6.34l0.43-14.18c64.69,52.18,110.64,124.39,139.88,201.46c10.4,27.38,18.59,55.51,25.04,84.01
			l-5.51-0.1C225.11,1086.58,129.56,1084.88,69.37,1083.35L69.37,1083.35z"/>
	</g>
	<g>
		<path class="st1" d="M140.47,772.23c0.36,25.14-19.54,48.54-45.01,51.72c-30.91,4.4-58.65-20.47-58.51-51.72
			c-0.19-31.29,27.55-56.22,58.51-51.79C120.95,723.65,140.84,747.09,140.47,772.23L140.47,772.23z M140.47,772.23
			c0.11-23.92-21.5-42.7-45.01-38.22c-18.11,3.12-31.77,20.45-31.51,38.22c-0.3,17.85,13.31,35.16,31.51,38.29
			C118.99,814.97,140.58,796.16,140.47,772.23L140.47,772.23z"/>
	</g>
	<g>
		<path class="st1" d="M1083.4,772.23c0.36,25.14-19.54,48.54-45.01,51.72c-30.91,4.4-58.65-20.47-58.51-51.72
			c-0.19-31.29,27.55-56.22,58.51-51.79C1063.88,723.65,1083.77,747.09,1083.4,772.23L1083.4,772.23z M1083.4,772.23
			c0.11-23.92-21.5-42.7-45.01-38.22c-18.11,3.12-31.77,20.45-31.51,38.22c-0.3,17.85,13.31,35.16,31.51,38.29
			C1061.92,814.97,1083.51,796.16,1083.4,772.23L1083.4,772.23z"/>
	</g>
	<g>
		<path class="st1" d="M139.95,902.13c50.61,33.42,89.91,110.69,81.35,171.52c-0.52,3.26-1.16,6.5-1.99,9.7
			c-6.86-15.71-12.64-30.87-19.4-46.24C180.83,991.61,157.57,948.45,139.95,902.13L139.95,902.13z"/>
	</g>
	<g>
		<path class="st1" d="M118,978.83c27.81,18.11,42.47,57.85,36,89.98c-1.13,5.04-2.6,9.9-5.1,14.54
			c-5.87-7.84-10.18-16.3-14.19-25.06C124.29,1034.39,115.76,1005.17,118,978.83L118,978.83z"/>
	</g>
	<g>
		<path class="st1" d="M993.9,902.13c-17.62,46.32-40.87,89.49-59.96,134.98c-6.77,15.37-12.54,30.52-19.4,46.24
			c-0.83-3.2-1.48-6.44-1.99-9.7C904,1012.84,943.27,935.57,993.9,902.13L993.9,902.13z"/>
	</g>
	<g>
		<path class="st1" d="M1015.86,978.83c2.24,26.32-6.29,55.56-16.71,79.46c-4.01,8.76-8.32,17.22-14.19,25.06
			c-2.5-4.64-3.98-9.5-5.1-14.54C973.38,1036.75,988.07,996.9,1015.86,978.83L1015.86,978.83z"/>
	</g>
	<g>
		<path class="st1" d="M980.63,395.49c19.79,9.62,31.15,31.62,31.6,53.07c0,7.73-1.12,15.06-4.74,22.42
			c-4.95-3.38-8.87-7.48-12.51-12C981.38,441.48,974.82,417.26,980.63,395.49L980.63,395.49z"/>
	</g>
	<g>
		<path class="st1" d="M854.7,226.99c27.84,9.77,53.12,32.58,71.42,55.24c18.8,23.9,33.73,51,38.53,81.61
			c-6.3-4.91-11.45-10.34-16.78-15.59c-15.21-15.53-29.37-32.3-42.84-49.17C886.96,276.15,869.08,252.64,854.7,226.99L854.7,226.99z
			"/>
	</g>
	<g>
		<path class="st1" d="M520.69,1083.11c29.81-2.32,62.5-4.2,92.47-5.67l-5.57,6.74c-6.18-25.41-13.86-58.13-19.64-83.59
			c-0.12-0.57-0.7-4.39-0.82-5.07c-0.36-4.1-0.38-8.33,0.28-12.4c3.44-23.05,23.08-40.6,46.36-41.65c2.16-0.18,4.86-0.17,7.01-0.24
			l53.3-1.05l-12.33,12.33c-0.16-10.93-0.43-30.78-0.59-41.53c-0.1-12.97-10.89-23.72-23.86-23.68c-0.29-0.04-1.05,0-1.37-0.01
			l-5.93,0.02c-53.96,0.23-112.29-0.02-166.13-0.83l-5.93-0.08l-0.74-0.01l-0.37-0.01l-0.26,0.01l-0.99,0.04
			c-5.94,0.09-11.81,2.53-16.21,6.55c-5.05,4.61-7.97,11.18-8.2,18.01l-0.15,5.93c-0.19,7.48-0.72,27.84-0.92,35.6l-10.31-10.31
			c19.43,0.6,38.87,1.18,58.29,1.94c1.98,0.11,3.97,0.31,5.93,0.5c17.16,2.52,32.09,14.98,37.23,31.57l1.04,3.73l0.64,3.81
			c0.26,1.26,0.23,2.56,0.33,3.83c0.09,1.03,0.12,2.79,0.02,3.83c-0.05,2.35-0.47,5.24-0.94,7.54
			C535.57,1027.12,528.33,1055.15,520.69,1083.11c3.09-27.66,6.73-55.22,10.58-82.77c0.52-3.41,0.74-6.9,0.45-10.32
			c-1.87-16.85-15.85-29.64-32.9-29.14c-22.96,0.83-46.1,1.55-69.08,2.26c-0.35-15.34-0.99-36.87-1.34-52.16
			c-0.2-13.01,5-25.99,14.27-35.19c8.79-8.9,21.16-14.11,33.67-14.32c0.61-0.03,6.68-0.11,7.52-0.12
			c11.56-0.09,24.12-0.43,35.6-0.45c43.6-0.47,93.92-0.54,137.57-0.36c24.31-0.11,45.92,18.4,49.35,42.51
			c0.75,4.22,0.6,9.58,0.53,13.87l-0.17,11.87c-0.12,8.21-0.4,28.34-0.52,36.3l-12.15-0.24c-3.54-0.06-57.04-1.13-59.01-1.17
			l-0.6,0.02l-2.41,0.04c-3.19,0.35-6.3,1.09-9.25,2.39c-11.48,5.19-18.63,17.88-16.86,30.4c3.92,26.01,9.12,59.43,12.77,85.52
			l1.02,7.08l-6.59-0.34C583.16,1087.21,550.54,1085.52,520.69,1083.11L520.69,1083.11z"/>
	</g>
</g>
</svg>
