<?xml version="1.0" encoding="utf-8"?>
<!-- Generator: Adobe Illustrator 29.5.0, SVG Export Plug-In . SVG Version: 9.03 Build 0)  -->
<svg version="1.1" id="Layer_1" xmlns="http://www.w3.org/2000/svg" xmlns:xlink="http://www.w3.org/1999/xlink" x="0px" y="0px"
	 viewBox="0 0 1133.86 1133.86" style="enable-background:new 0 0 1133.86 1133.86;" xml:space="preserve">
<style type="text/css">
	.st0{fill:#AC8A51;}
</style>
<path class="st0" d="M1104.2,802.28C1104.2,802.28,1104.2,802.29,1104.2,802.28C1104.2,802.28,1104.2,802.28,1104.2,802.28
	C1104.2,802.28,1104.2,802.29,1104.2,802.28c-183.91,85.53-406.27,64.24-567.96-58.72C423.55,659.3,345.56,530.3,324.87,391.03
	c-8.5-55.28-8.14-111.82,0.4-167.06c10.36-75.44,43.4-146.63,78.78-213.42C346.19,38.67,283.6,69.87,235.06,112.5
	C67.29,252.74-6.13,477.65,46.38,689.86c50.43,209.1,222.96,377.26,433.68,421.04c136.96,29.49,284.87,6.09,405.08-66.15
	c38.04-22.68,73.74-50.09,105.26-81.18C1037.67,917.29,1076.53,862.13,1104.2,802.28C1104.2,802.29,1104.2,802.29,1104.2,802.28z
	 M848.01,1044.9c-107.01,50.23-230.13,64.41-345.67,40.07C220.13,1026.64,30.79,752.5,78.51,467.98
	c23.1-147.66,112.25-281.83,236.78-363.47c-41.49,114.05-45.83,241.34-11.3,357.77c100.83,339.51,485.83,507.54,800.21,340.01
	C1047.15,907.8,956.59,994.21,848.01,1044.9z"/>
<g>
	<path class="st0" d="M1102.7,468.17c-4.81-30.36-10.8-63.43-16.04-93.82c0,0-2.14-12.11-2.14-12.11
		c-14.16,2.54-33.83,6.09-50.57,9.16c-3.92-20.95-8.22-42.74-12.31-63.77c12.64-2.53,27.42-5.49,36.3-7.32l16.26-3.29
		c0,0-3.39-16.52-3.39-16.52c-6.06-29.72-13.08-63.47-19.73-93.04l-3.66-16.57c0,0-16.2,3.67-16.2,3.67
		c-6.47,1.46-13.03,2.97-20.15,4.54c-8.41,1.76-17.35,0.92-25.33-2.29c-13.29-5.25-23.52-16.83-27.17-30.76l-16.37-10.63
		c-39.54,10.02-79,20.43-118.55,30.4c-118.56,30.23-238.53,54.23-359.07,75.1c0,0-9.28,1.62-9.28,1.62
		c1.09,6.94,2.9,15.34,2.16,22.37c-1.46,19.91-16.25,37.92-35.66,42.62c-1.35,0.36-2.95,0.66-4.31,0.92
		c-6.14,1.05-17.22,3.1-23.65,4.2c0,0-13.54,2.41-13.54,2.41c3.19,17.79,7.85,43.42,11.15,61.22c3.49,18.46,8.33,44.39,11.95,62.78
		c7.09-1.42,34.76-6.81,54-10.57c3.36,17.09,7.69,39.08,11.34,57.62c-19.73,3.93-47.24,9.4-55.57,11.05
		c5.59,27.99,12.46,61.41,18.23,89.39c2.3,10.65,6.74,32.53,9.05,43.09c12.15-2.61,29.91-6.3,42.06-8.94
		c11.71-2.94,24.17-0.64,33.86,6.61c7.18,5.21,12.4,12.9,14.83,21.42c0.96,3.44,4.48,19.95,5.46,23.89c0,0,18.78-4.25,18.78-4.25
		c119.31-27.04,238.27-55.58,356.64-86.53c40.19-10.54,80.34-21.3,120.31-32.81l-0.54-1.86c0,0-0.78-2.7-0.78-2.7l0,0
		c-3.49-26.62,12.26-53.05,38.1-60.95c4.13-1.27,8.44-1.87,12.73-2.55l13.97-2.25l8.34-1.35
		C1104.2,477.36,1102.7,468.17,1102.7,468.17z M1078.49,464.94l-3.42,0.91l-1.74,0.47c0,0-1.92,0.55-1.92,0.55
		c-33.16,9.48-54.1,45.13-44.03,78.37c0,0,0.06-0.01,0.17-0.04c-0.01,0-0.17,0.04-0.17,0.04s0.05,0.39,0.08,0.59
		c-120.56,17.29-240.41,38.68-360.07,61.11c-34.18,6.46-68.32,13.06-102.44,19.79c-0.64-1.48-1.31-2.95-2.05-4.39
		c-15.34-30.7-50.61-48.36-84.41-42.13c-1.87,0.33-4.38,0.85-6.84,1.37c-3.64-16.86-7.64-35.29-10.92-49.88l-0.96-4.29
		c19.05-4.3,44.19-9.96,53.83-12.17c-2.35-10.92-22.5-97.67-25.33-110.93L484.32,387l-16.78,3.84c0,0-22.65,5.19-38.57,8.84
		c-4.81-20.49-10.06-42.51-15.02-62.79c0,0,0.14-0.03,0.14-0.03l7.17-1.78c0,0,1.79-0.45,1.79-0.45
		c19.68-4.6,36.99-17.73,46.57-35.4c6.91-12.5,9.81-27.1,8.35-41.26c115.55-29.02,231.83-55.04,349.29-75.12
		c35.91-6.24,71.89-12.12,107.82-18.25c6.75,17.77,20.59,32.95,37.97,40.86c14.67,6.97,31.85,8.75,47.78,5.28
		c0.21-0.04,0.47-0.09,0.77-0.14c4.1,19.89,8.57,40.84,12.93,60.68c-17.08,3.82-36.38,8.16-51.1,11.5
		c4.25,18.08,9.84,43.76,14.22,61.86c4.7,19.94,9.47,40.56,14.34,60.51c15.19-3.63,35.64-8.6,52.95-12.83
		c5.85,23.51,12.22,48.14,18.25,71.36C1081.07,464.26,1078.49,464.94,1078.49,464.94z"/>
	<g>
		<g>
			<path class="st0" d="M777.49,482.19c-0.15,0.08-0.27,0.2-0.47,0.22c-0.5-0.14-0.91-0.45-1.36-0.7c-1.03-0.53-3.84-2.89-4.86-3.61
				c-6.57-4.47-13.66-8.36-20.74-11.95c-21.63-11.38-45.76-17.22-65.66-32.23c-21.55-16.08-33.16-46.35-20.01-71.35
				c13.73-26.69,46.62-36.6,72.43-20.83c0.44,0.23,0.93,0.55,1.33,0.83c1.1,0.8,2.72,2.04,3.84,2.79c0.15,0.11,0.35,0.21,0.13,0.09
				c-0.45-0.19-0.5-0.24-1.13-0.41c-0.18-0.05-0.88-0.22-1.92-0.19c-1.4-0.1-4.12,1.22-4.47,1.82c-1.09,1.04-1.47,1.9-1.32,1.62
				c-0.09,0.13-0.21,0.4-0.17,0.32c0,0,0.07-0.17,0.07-0.17c0.43-1.08,1.13-2.91,1.54-4c18.51-42.52,80.33-40.62,95.58,3.34
				c6.07,16.88,3.37,35.09-4.49,50.85c-7.28,15.04-17.21,27.51-26.14,41.15C790.96,453.19,782.84,467.04,777.49,482.19
				L777.49,482.19z M777.49,482.19c3.11-15.92,9.84-30.95,17.36-45.24c7.34-14.02,16.47-27.75,22.29-42.16
				c3.72-9.28,6.04-18.97,5.15-28.9c-0.87-9.25-4.32-18.77-10.53-25.72c-17.63-19.94-51.38-15.82-63.07,8.25c0,0-0.1,0.19-0.1,0.19
				c-0.03,0.06-0.09,0.16-0.04,0.08c0.07-0.15-0.01,0.02-0.03,0.08c-0.73,1.86-1.51,4.17-2.32,5.99c-0.5,0.88-0.22,0.87-1.86,2.6
				c-0.39,0.68-3.19,2.02-4.68,1.93c-3.73,0.03-5.72-2.02-8.38-3.87c0,0-1.48-1.11-1.48-1.11s-0.07-0.05-0.07-0.05l0.03,0.02
				c-0.41-0.22-1.96-1.1-2.59-1.46c-18.48-9.96-41.13-2.24-51.05,15.94c-12.4,22.44,0.98,48.73,20.55,62.19
				c8.28,6.01,17.68,10.9,27.18,15.81c16.69,8.63,33.51,17.94,47.69,30.49c0,0,2.84,2.86,2.84,2.86c0.83,0.8,1.66,1.66,2.65,2.23
				C777.17,482.34,777.34,482.25,777.49,482.19L777.49,482.19z"/>
		</g>
	</g>
</g>
</svg>
