<?xml version="1.0" encoding="utf-8"?>
<!-- Generator: Adobe Illustrator 29.8.2, SVG Export Plug-In . SVG Version: 9.03 Build 0)  -->
<svg version="1.1" id="Layer_1" xmlns="http://www.w3.org/2000/svg" xmlns:xlink="http://www.w3.org/1999/xlink" x="0px" y="0px"
	 viewBox="0 0 1133.86 1133.86" style="enable-background:new 0 0 1133.86 1133.86;" xml:space="preserve">
<style type="text/css">
	.st0{fill:#A56D29;}
</style>
<g>
	<g>
		<path class="st0" d="M487.47,611.39C413.15,558.16,334,493.05,238.13,496.09c-70.16,3.24-131.5,38.75-159.35,104.83
			c-33.54,79.51,3.12,173.91,83.36,207.06c33.91,14.39,72.73,15.66,107.5,3.75c40.51-12.77,77.48-35.08,104.67-67.73
			c27.64-32.96,44.08-70.33,58.61-112.29c25.64-75.62,41.05-158.31,73.8-232.46c40.1-93.24,106.13-161.48,203.36-194.79
			c103.04-37.48,217.43-20.4,303.7,47.75c73.04,56.93,117.51,147.7,117.82,240.2c1.74,128.38-82.23,248.53-204.62,288.19
			c-65.23,21.1-137.98,23.63-203.25,2.35c-63.38-20.02-118.59-60.24-167-104.2C532.8,657.01,510.02,634.34,487.47,611.39
			c97.52,72.32,206.7,156.77,334.88,140.81c29.37-3.42,58.51-10.68,85.81-22.07c168.47-71.56,201.38-298.91,53.24-409.52
			c-53.92-40.04-125.52-54.76-190.69-38.22C600.62,325.36,579.6,468.24,534.53,614.33c-31.86,105.89-79.05,204.22-183.86,254.62
			c-34.1,16.12-69.8,27.76-107.37,30.21c-96.92,7.09-192.84-54.32-225.66-145.76c-44.62-117.64,21.13-252.36,143.18-285.25
			C299.13,431.08,397.69,520.04,487.47,611.39L487.47,611.39z"/>
	</g>
</g>
<g>
	<path class="st0" d="M260.83,419.55c-21.33-10.49-41.8-22.94-61.8-35.74l13.1,2.81c-39.59,16.47-80.2,31.25-121.57,42.53
		l15.12-14.37c-6.75,19.25-17.78,46.44-25.6,65.6l-6.43-21.24c43.22,37.16,90.23,75.06,133.45,112.22l-18.06,5.08
		c22.52-51.33,47.76-108.31,71.15-159.3l4.02,1.54l-6.49,20.83c-4.11,13.2-15.46,48.74-19.82,62.36
		c-9.86,30.01-21.81,67.6-31.76,97.29l-13.31-9.29c-46.93-32.33-95.55-68.15-142.49-100.48l-10.31-7.11
		c7.11-25.26,15.11-57.01,23.29-81.81l3.57-10.98c34.61-10.56,70-18.62,105.57-25.18c12.83-2.22,28.3-5,41.15-6.67l3.83,4.13
		c12.04,12.94,24.05,26.46,35.14,40.22c3.75,4.66,7.45,9.36,11,14.26C263.59,416.25,260.83,419.55,260.83,419.55L260.83,419.55z"/>
</g>
</svg>
