<?xml version="1.0" encoding="utf-8"?>
<!-- Generator: Adobe Illustrator 29.5.0, SVG Export Plug-In . SVG Version: 9.03 Build 0)  -->
<svg version="1.1" id="Layer_1" xmlns="http://www.w3.org/2000/svg" xmlns:xlink="http://www.w3.org/1999/xlink" x="0px" y="0px"
	 viewBox="0 0 1133.86 1133.86" style="enable-background:new 0 0 1133.86 1133.86;" xml:space="preserve">
<style type="text/css">
	.st0{fill:#AC8A51;}
</style>
<g>
	<path class="st0" d="M1113.77,787.91c-73.62,44.39-159.02,69.28-244.93,73.68c-287.44,17.2-552.4-199.69-583.32-487.57
		c-5.35-45.12-5.44-90.47-0.56-135.49c7.83-74.37,29.54-147.29,62.86-213.92c0,0,11.92,11.92,11.92,11.92
		C258.2,87,174.58,171.58,124.75,273.26c-40.89,83.18-59.69,176.51-55.87,268.85c13.82,376.69,398.47,624.58,748.82,490.9
		c122.37-46.27,225.55-136.32,292.1-249.06c0,0,5.29,2.64,5.29,2.64c-24.98,59.95-61.51,115.24-106.12,162.51
		c-183.29,194.6-484.76,231.85-712.04,92.53C115.83,932.07,6.8,723.44,19.82,512.47c7.03-122.61,55.63-240.26,134-334.4
		c54.36-65.25,122.14-119.29,197.98-157.42c0,0,23.87-12.09,23.87-12.09s-11.95,24.01-11.95,24.01
		c-55.07,109.42-66.76,238.07-37.03,356.33C365.71,545.51,472,684.56,614.65,760.66c125.05,67.41,275.92,84.02,413.56,48.99
		c28.09-6.95,55.68-16.25,82.91-27.02C1111.12,782.63,1113.77,787.91,1113.77,787.91L1113.77,787.91z"/>
	<g>
		<path class="st0" d="M692.51,395.65c-39.57-7.25-78.52-11.28-118.95-18.29c0,0,9.17-1.77,9.17-1.77
			c-22.05,18.36-101.24,84.43-121.98,101.7c0,0-0.82-40.88-0.82-40.88s-2.37-118.13-2.37-118.13s5.42,9.8,5.42,9.8
			s-90.75-75.66-90.75-75.66s-8.34-6.95-8.34-6.95s9.78-4.71,9.78-4.71s106.46-51.24,106.46-51.24s-7.65,8.19-7.65,8.19
			c6.94-25.35,34.33-125.84,40.78-149.4c16.15,18.65,84.76,97.56,102.29,117.79c0,0-16.07-7.51-16.07-7.51s117.96-0.01,117.96-0.01
			s44.31,0,44.31,0c-16.5,22.28-78.1,105.65-95.74,129.48c0,0,1.26-10.19,1.26-10.19C676.75,317.95,682.81,356.56,692.51,395.65
			L692.51,395.65z M689.22,392.57c-13.29-36.28-30.9-72.52-45.55-107.28c0,0-1.76-4.18-1.76-4.18s3.02-6.01,3.02-6.01
			s53.14-105.8,53.14-105.8s18.96,34.28,18.96,34.28l-117.94-2.24c0,0-9.95-0.19-9.95-0.19s-6.12-7.32-6.12-7.32
			s-75.63-90.53-75.63-90.53s34.61-6.69,34.61-6.69L498.08,206.3c0,0-2.57,6.42-2.57,6.42s-5.08,1.76-5.08,1.76l-111.61,38.76
			c0,0,1.44-11.66,1.44-11.66s98.79,64.81,98.79,64.81s4.49,2.95,4.49,2.95s0.93,6.86,0.93,6.86s15.83,117.09,15.83,117.09
			l-31.94-14.93l101.3-61.1l5.14-3.1l4.03,1.33C614.75,367.36,652.09,381.87,689.22,392.57L689.22,392.57z"/>
	</g>
	<g>
		<path class="st0" d="M820.04,713.93c-20.7-23.38-42.83-43.94-64.24-67.77c0,0,8.22,4.42,8.22,4.42
			c-28.23,0.93-106.22,3.57-133.46,4.48c0,0,26.88-33.17,26.88-33.17l57.36-70.8c0,0-1.99,11.02-1.99,11.02l-15.85-89.73
			c0,0-1.84-10.42-1.84-10.42s10.33,2.29,10.33,2.29L794.4,484c0,0-11.1,1.51-11.1,1.51c20.5-15.15,83.39-61.75,102.98-76.24
			c0.83,24.9,3.51,103.36,4.39,129.53c0,0-7.71-15.98-7.71-15.98l70.6,57.22l35.56,28.82c-26.93,6.15-103.63,23.69-131.67,30.1
			c0,0,7.42-7.1,7.42-7.1C850.28,660.56,833.99,685.94,820.04,713.93L820.04,713.93z M819.43,709.47
			c9.37-28.14,15.29-58.94,22.46-86.76c0,0,1.06-4.06,1.06-4.06s6.36-3.05,6.36-3.05l82.46-39.49c0,0-6.97,38.55-6.97,38.55
			c-4.07-3.52-75.09-63.97-76.78-65.45c0,0-0.09-9.48-0.09-9.48l-0.83-90.87c0,0,31.06,16.69,31.06,16.69l-80.44,42.8
			c0,0-6.3,3.35-6.3,3.35l-4.8-1.84c0,0-85.06-32.68-85.06-32.68s8.49-8.13,8.49-8.13s28.93,86.41,28.93,86.41s1.63,4.87,1.63,4.87
			s-3.63,6.15-3.63,6.15l-46.27,78.5c0,0-15.32-31.75-15.32-31.75l90.09,14.9c0,0,6.18,1.02,6.18,1.02s2.04,3.4,2.04,3.4
			C788.5,657.29,802.8,684.92,819.43,709.47L819.43,709.47z"/>
	</g>
	<g>
		<path class="st0" d="M930.64,355.78c-14.26-14.52-29.66-26.44-44.39-41.65c0,0,8.22,4.42,8.22,4.42
			c-25.99,2.24-79.75,7.13-105.51,9.37c17.19-19.53,52.99-60.08,70.33-79.77c0,0-1.99,11.02-1.99,11.02
			c-0.92-6.57-8.39-62.84-9.09-67.81c4.64,0.81,61,10.92,67.35,12.04c0,0-11.1,1.51-11.1,1.51s45.49-36.7,45.49-36.7
			s29.4-23.72,29.4-23.72s1.65,40.41,1.65,40.41s2.37,58.02,2.37,58.02s-7.71-15.98-7.71-15.98c20.82,16.73,63.48,50.65,84.18,67.26
			c-25.25,4.18-78.42,12.88-103.94,17.1c0,0,7.42-7.1,7.42-7.1C952.89,322.82,940.82,338.08,930.64,355.78L930.64,355.78z
			 M930.04,351.32c5.89-19.28,7.57-40.63,10.88-59.57c1.62-0.96,54.65-30.41,58.33-32.5c0,0-6.97,38.55-6.97,38.55
			s-43.93-37.98-43.93-37.98l-7.69-6.65c-0.02-4.44-0.13-61.24-0.14-67.4c0,0,31.06,16.69,31.06,16.69
			c-3.9,1.87-57.93,27.8-59.62,28.61c0,0-4.18-1.81-4.18-1.81l-53.64-23.21c0,0,8.49-8.13,8.49-8.13l20.85,54.6l1.63,4.26
			c-0.72,1.48-29.32,54.73-31.18,58.31c0,0-15.32-31.75-15.32-31.75l57.35,12.76l6.75,1.5l1.48,2.92
			C912.15,316.63,919.86,335.49,930.04,351.32L930.04,351.32z"/>
	</g>
</g>
</svg>
