<?xml version="1.0" encoding="utf-8"?>
<!-- Generator: Adobe Illustrator 29.5.0, SVG Export Plug-In . SVG Version: 9.03 Build 0)  -->
<svg version="1.1" id="Layer_1" xmlns="http://www.w3.org/2000/svg" xmlns:xlink="http://www.w3.org/1999/xlink" x="0px" y="0px"
	 viewBox="0 0 1133.86 161.21" style="enable-background:new 0 0 1133.86 161.21;" xml:space="preserve">
<style type="text/css">
	.st0{fill:#AC8A51;}
</style>
<g>
	<g>
		<path class="st0" d="M723.22,79.35c-0.1-0.42-0.26-0.91-0.43-1.33c-0.12-0.25-0.23-0.54-0.36-0.78l-0.28-0.51
			c-0.04-0.09-0.1-0.17-0.16-0.25c-0.08-0.12-0.25-0.38-0.33-0.5c-0.18-0.24-0.36-0.5-0.56-0.74l-0.41-0.48
			c-0.07-0.08-0.14-0.16-0.22-0.24c-0.1-0.11-0.35-0.36-0.45-0.47c-0.24-0.22-0.48-0.46-0.74-0.68l-0.53-0.44
			c-0.09-0.07-0.18-0.14-0.28-0.21l-0.28-0.21l-0.28-0.21c-0.67-0.46-1.43-0.95-2.19-1.37c-0.11-0.06-0.22-0.12-0.33-0.18
			l-0.34-0.18l-0.34-0.18l-0.17-0.09l-0.18-0.08c-2.1-1-4.53-1.8-7.09-2.36c-0.7-0.14-1.43-0.28-2.16-0.4
			c-0.07-0.01-0.14-0.02-0.22-0.04l-0.22-0.03l-0.88-0.12c-2.05-0.24-4.16-0.33-6.24-0.27c10.09,0.32,18.92,4.13,21.88,9.68
			c1.96,3.64,1.22,7.77-2.88,10.84c-3.87,2.95-10.28,4.63-16.61,4.47c3.08-1.1,5.7-2.61,7.52-4.41c3.72-3.61,3.76-8.2,0.92-12
			c-0.28-0.37-0.65-0.82-1-1.18l-0.22-0.23l-0.23-0.22c-0.24-0.25-0.71-0.65-0.98-0.88c-0.22-0.19-0.58-0.45-0.81-0.63l-0.29-0.2
			l-0.29-0.2c-0.1-0.07-0.19-0.14-0.29-0.2l-0.61-0.39c-0.31-0.19-0.64-0.37-0.96-0.56c-0.27-0.14-0.56-0.3-0.84-0.44
			c-0.62-0.3-1.29-0.62-1.96-0.88l-0.37-0.15l-0.37-0.15c-0.06-0.02-0.12-0.05-0.19-0.07l-0.19-0.07l-0.77-0.27l-0.79-0.25
			c-2.1-0.64-4.42-1.11-6.76-1.37c-1.75-0.2-3.55-0.27-5.33-0.24c0.25,0.01,1.11,0.04,1.33,0.05c0.23,0.01,0.65,0.04,0.88,0.05
			c0.33,0.02,0.97,0.08,1.32,0.11c8.58,0.84,15.95,4.41,18.75,9.13c1.33,2.25,1.68,4.72,0.83,7.04c-1.36,3.79-6.12,6.84-12.15,8.27
			c-0.36-0.05-0.72-0.12-1.08-0.18c-2.02-0.38-3.91-0.95-5.61-1.68c-3.73-1.64-13.28-5.85-16.91-7.43
			c-8.89-3.88-18.77-8.15-27.72-11.97c-4.7-2.09-10.59-3.14-16.53-2.81c-2,0.11-3.97,0.36-5.85,0.76c-4.27-0.51-8.8-0.28-12.86,0.65
			c-9.73,2.22-15.31,7.72-13.89,13.67c0.19,0.86,0.54,1.74,1,2.56c0.12,0.23,0.32,0.52,0.45,0.74c0.08,0.12,0.27,0.37,0.35,0.49
			c0.06,0.08,0.11,0.16,0.18,0.24l0.39,0.47c0.18,0.21,0.45,0.49,0.64,0.69c0.11,0.11,0.37,0.34,0.47,0.45
			c0.08,0.07,0.15,0.15,0.24,0.22l0.51,0.43c0.22,0.19,0.57,0.45,0.81,0.63c0.29,0.2,0.57,0.41,0.87,0.6
			c0.49,0.32,1.03,0.65,1.57,0.94c0.27,0.14,0.56,0.3,0.84,0.44c0.5,0.24,1.06,0.51,1.59,0.73c0.12,0.05,0.24,0.11,0.36,0.15
			l0.37,0.15l0.37,0.15c0.06,0.02,0.12,0.05,0.19,0.07l0.19,0.07c0.73,0.26,1.59,0.54,2.37,0.75c3.49,0.98,7.41,1.44,11.28,1.38
			c-10.21-0.18-19.27-4-22.41-9.57c-1.23-2.18-1.52-4.56-0.7-6.81c2.02-5.58,11.13-9.34,20.63-9.16c-2.23,0.77-4.25,1.76-5.91,2.91
			c-4.6,3.15-6.08,7.39-4.54,11.36c0.06,0.16,0.13,0.36,0.22,0.52c0.09,0.18,0.14,0.33,0.25,0.52l0.28,0.51
			c0.04,0.09,0.1,0.17,0.16,0.25c0.08,0.12,0.25,0.38,0.33,0.5c0.34,0.47,0.76,1.01,1.19,1.45c0.11,0.11,0.35,0.35,0.45,0.47
			c0.11,0.11,0.38,0.35,0.49,0.45c0.08,0.08,0.16,0.15,0.25,0.22l0.53,0.44c0.09,0.07,0.18,0.14,0.28,0.21l0.28,0.21l0.28,0.21
			l0.3,0.2c0.87,0.6,1.88,1.18,2.91,1.7l0.17,0.09l0.18,0.08c0.47,0.21,0.94,0.44,1.46,0.64c0.4,0.17,0.92,0.35,1.33,0.51
			c1.1,0.38,2.26,0.74,3.45,1.01l0.84,0.19l0.86,0.17c0.35,0.08,0.97,0.16,1.3,0.23c2.45,0.38,5.03,0.53,7.56,0.45
			c-10.25-0.33-19.17-4.25-22.01-9.91c-1.64-3.26-1.15-6.96,2.08-9.84c2.3-2.1,5.87-3.72,9.93-4.56c0.67-0.14,1.35-0.26,2.04-0.36
			c1.53,0.37,2.97,0.84,4.3,1.41c12.25,5.37,27.35,11.96,39.66,17.27c0.9,0.39,3.4,1.47,4.27,1.84c1.47,0.64,3,1.27,4.66,1.74
			c4.42,1.28,9.52,1.65,14.35,1.1c3.19,0.67,6.64,0.94,10.03,0.74c4.21-0.22,8.29-1.12,11.71-2.54
			C721.13,89.02,724.49,84.23,723.22,79.35z M679.22,91.3c-0.99-0.29-1.94-0.64-2.83-1.02l-11.3-4.95
			c-10.17-4.44-23.17-10.09-33.35-14.46c-0.67-0.3-1.37-0.57-2.09-0.83c4.16-0.03,8.3,0.77,11.61,2.21
			c8.62,3.81,19.62,8.64,28.25,12.37c4.68,2.02,10.98,4.74,15.66,6.73c0.22,0.09,0.86,0.37,1.07,0.46c0.62,0.27,1.27,0.52,1.93,0.75
			C685.07,92.56,681.98,92.12,679.22,91.3z"/>
		<path class="st0" d="M511.07,68.36c-5.86-1.22-12.47-1.09-18.27,0.57c-1.45,0.41-2.82,0.92-4.11,1.48
			c-4.97,2.12-11.4,4.89-16.37,7.04c-8.66,3.74-19.61,8.55-28.26,12.37c-2,0.87-4.29,1.5-6.7,1.86c-8.22-1.92-13.51-6.7-12.49-12.18
			c0.07-0.39,0.17-0.84,0.3-1.22c0.04-0.12,0.14-0.36,0.18-0.48c0.03-0.08,0.06-0.16,0.1-0.24l0.22-0.48
			c0.1-0.22,0.28-0.49,0.39-0.71c0.15-0.22,0.3-0.48,0.46-0.7c3.38-4.81,11.46-8.18,20.49-8.59c0.15-0.01,0.3-0.01,0.44-0.02
			l0.89-0.03c-1.48-0.02-2.98,0.02-4.45,0.16c-0.58,0.04-1.19,0.12-1.76,0.19c-0.23,0.03-1.11,0.16-1.3,0.2
			c-0.41,0.07-0.88,0.16-1.28,0.24l-0.84,0.18l-0.83,0.2c-1.36,0.34-2.72,0.77-3.94,1.25c-0.8,0.3-1.6,0.67-2.33,1.03
			c-0.37,0.19-0.81,0.42-1.16,0.62c-0.74,0.41-1.47,0.9-2.12,1.36c-0.14,0.1-0.4,0.31-0.54,0.42c-0.09,0.07-0.18,0.14-0.27,0.21
			L427,73.52c-0.23,0.21-0.49,0.46-0.71,0.67c-0.1,0.12-0.33,0.34-0.43,0.46c-0.16,0.15-0.46,0.55-0.6,0.71
			c-0.18,0.22-0.37,0.5-0.53,0.73c-0.14,0.23-0.33,0.52-0.45,0.74l-0.26,0.5c-0.08,0.15-0.16,0.35-0.23,0.51
			c-0.06,0.14-0.16,0.37-0.2,0.51c-2,5.46,1.83,10.78,9.93,13.65c-9.27,0.25-18-3.42-20.01-8.68c-0.88-2.26-0.59-4.66,0.65-6.86
			c2.8-4.94,10.54-8.59,19.55-9.31l0.44-0.03l0.44-0.03c0.12-0.01,4.27-0.1,4.33-0.11c-1.48-0.04-5.99,0.02-7.47,0.14
			c-3.29,0.24-6.51,0.9-9.35,1.89c-0.24,0.08-0.54,0.19-0.77,0.28c-0.51,0.18-1.02,0.4-1.5,0.61l-0.72,0.33l-0.18,0.08
			c-0.11,0.06-0.4,0.2-0.52,0.26l-0.34,0.18c-0.54,0.29-1.12,0.62-1.62,0.94c-0.29,0.18-0.62,0.41-0.9,0.61l-0.28,0.21l-0.28,0.21
			c-0.09,0.07-0.19,0.14-0.28,0.21c-0.3,0.24-0.76,0.64-1.02,0.89c-0.23,0.2-0.49,0.49-0.7,0.7c-0.18,0.17-0.46,0.53-0.63,0.72
			c-0.19,0.23-0.39,0.5-0.56,0.74c-0.15,0.23-0.35,0.53-0.48,0.76l-0.28,0.51c-0.13,0.24-0.25,0.54-0.36,0.78
			c-0.15,0.42-0.34,0.9-0.43,1.33c-1.27,4.88,2.1,9.67,9.1,12.58c5.84,2.44,13.53,3.25,20.46,2.04c0.44-0.07,0.87-0.16,1.29-0.25
			c4.81,0.55,9.88,0.19,14.33-1.1c1.4-0.4,2.71-0.89,3.95-1.43c6.15-2.65,15.8-6.83,22.02-9.53c5.65-2.46,16.99-7.41,22.63-9.89
			c0.9-0.38,1.85-0.72,2.83-1.02c0.48-0.14,0.96-0.27,1.46-0.39c3.83,0.54,7.38,1.74,10.02,3.43c4.78,3.02,5.95,7.22,4.15,11.09
			c-2.72,5.78-11.71,9.8-22.13,10.14c4.99,0.16,9.98-0.59,14.2-2.12c0.2-0.07,0.57-0.22,0.77-0.29c0.6-0.24,1.26-0.52,1.83-0.79
			c0.33-0.15,0.71-0.36,1.04-0.52c0.54-0.29,1.11-0.63,1.62-0.94c0.29-0.18,0.62-0.41,0.9-0.61l0.28-0.21l0.28-0.21
			c0.2-0.14,0.61-0.5,0.8-0.65c0.24-0.21,0.51-0.46,0.74-0.68c0.12-0.12,0.33-0.35,0.45-0.47c0.43-0.45,0.85-0.98,1.19-1.45
			c0.15-0.23,0.35-0.52,0.48-0.76l0.28-0.51c0.13-0.24,0.25-0.54,0.36-0.78c0.16-0.41,0.33-0.9,0.43-1.33
			c1.06-4.05-1.11-8.2-6.16-11.12c-1.39-0.81-2.93-1.51-4.59-2.08c10.94-0.2,20.58,4.63,21.04,11.09
			c0.63,7.76-10.06,14.2-23.55,14.44c3.87,0.07,7.8-0.4,11.28-1.38c0.51-0.13,1.09-0.33,1.6-0.48l0.77-0.27l0.19-0.07
			c0.14-0.05,0.41-0.16,0.56-0.22l0.37-0.15c0.37-0.15,0.73-0.31,1.09-0.47l0.7-0.33l0.17-0.08c0.11-0.05,0.39-0.21,0.5-0.26
			c0.88-0.46,1.73-0.99,2.49-1.52l0.29-0.2l0.27-0.21c0.33-0.25,0.75-0.59,1.04-0.86c0.23-0.21,0.49-0.46,0.71-0.67
			c0.1-0.12,0.33-0.34,0.43-0.46c0.16-0.16,0.46-0.55,0.6-0.71c0.18-0.22,0.37-0.5,0.53-0.73c0.08-0.12,0.22-0.37,0.31-0.49
			c0.45-0.74,0.78-1.53,1.01-2.29c1.22-4.12-0.8-8.29-6-11.27C526.35,68.85,518.47,67.47,511.07,68.36z M468.38,85.34l-11.3,4.95
			c-0.9,0.38-1.85,0.72-2.83,1.02c-2.76,0.82-5.86,1.26-8.97,1.26c0.67-0.23,1.32-0.48,1.94-0.75l0.36-0.15l0.71-0.3
			c8.69-3.72,18.36-7.9,27-11.67c3.66-1.59,13.14-5.77,16.91-7.44c0.85-0.37,1.75-0.69,2.69-0.97c1.88-0.56,3.91-0.95,6.01-1.12
			c0.97-0.08,1.94-0.12,2.92-0.11c-0.72,0.26-1.42,0.53-2.09,0.83C491.53,75.26,478.57,80.89,468.38,85.34z"/>
		<path class="st0" d="M573.19,71.22c-9.4-2.75-20.76,0.12-24.32,5.72c-3.58,5.36,0.96,11.56,10.38,13.59
			c11.74,2.56,23.27-2.51,23.57-9.5C583.02,77.12,579.43,73.04,573.19,71.22z M582.32,81.03c0.3,6.48-12.03,10.56-21.98,7.97
			c-6.29-1.6-10.02-5.74-8.38-9.58c2.09-4.93,11.41-7.48,19.65-6.03C577.61,74.36,582.22,77.37,582.32,81.03z"/>
	</g>
</g>
</svg>
