<?xml version="1.0" encoding="utf-8"?>
<!-- Generator: Adobe Illustrator 29.8.2, SVG Export Plug-In . SVG Version: 9.03 Build 0)  -->
<svg version="1.1" id="Layer_1" xmlns="http://www.w3.org/2000/svg" xmlns:xlink="http://www.w3.org/1999/xlink" x="0px" y="0px"
	 viewBox="0 0 1133.86 1133.86" style="enable-background:new 0 0 1133.86 1133.86;" xml:space="preserve">
<style type="text/css">
	.st0{fill:#A56D29;}
</style>
<g>
	<path class="st0" d="M1014.45,771.01c-64.52-16.5-145.64,14.29-185.22,67.27c-39.04,52.51-18.14,107.27,46.68,118.57
		c53.39,8.68,110.19-10.73,150.57-45.96c19.3-17.32,36.01-40.53,38.64-66.55c1.19-12.54-1.31-25.14-8.14-35.55
		c-29.28-90.11-85.69-270.71-114.34-361.08l12.4,5.99c-94.48,37.15-284.75,111.11-379.32,147.94l6.18-12.78l48.58,156.4
		c3.34,10.97,52.15,168.46,54.05,174.73l-18.44-5.21c-12.4-3.47-25.52-4.97-38.43-4.78c-59.77,0.24-138.25,39.35-155.42,99.89
		c-6.74,24.27,2.54,48.84,23.8,62.47c44.46,27.83,106.19,16.56,150.58-6.93c23.11-12.43,44.58-29.87,58.67-52.06
		c6.92-10.94,11.84-23.06,13.18-35.39c1.36-12.3-0.94-24.71-7.52-35.1l-0.53-0.83l-0.3-0.99L641.64,714.3l-1.71-5.65l5.43-2.04
		c88.56-33.04,224.86-84.88,312.55-117.25l2.78-1.04l0.82,2.78C974.74,635.98,1001.44,726.09,1014.45,771.01l-29.19-89.11
		l-28.96-89.18l3.6,1.74l-77.45,31.09c-48.97,19.64-181.8,72.53-232.56,92.73l3.72-7.69l71.8,225.73l-0.83-1.82
		c4.18,6.43,7.29,14.17,9,21.77c3.38,15.27,1.42,31.36-3.94,45.79c-23.73,61.03-94.9,99.03-157.64,104.54
		c-52.73,5.29-118.24-16.46-121.45-78.07c-0.99-54.1,46.48-97.18,91.77-118.68c26.55-12.5,55.63-20.08,85.07-20.53
		c14.99-0.26,29.91,1.42,44.42,5.47l-12.78,13.07l-48.59-156.39l-48.41-156.45l-2.88-9.29l9.06-3.49l189.96-73.2l190.07-72.91
		l9.46-3.63l2.93,9.62c26.29,86.8,85.49,279.05,108.91,358.94c4.03,6.44,7.06,14.09,8.65,21.63c7.64,37.83-15.74,74.14-43.24,97.82
		c-50.7,44-141.42,68.19-201.22,29.79c-26.16-17.37-37.35-47.28-28.99-77.51c5.7-21.12,18.59-39.04,33.97-53.99
		C882.71,776.71,955.14,753.68,1014.45,771.01L1014.45,771.01z"/>
</g>
<g>
	<path class="st0" d="M197.52,665.54c-44.86-32.56-132.06-28.97-166.02,17.68c-11.56,16.18-11.37,37.08,0.64,52.9
		c11.59,15.65,30.05,25.28,48.63,30.54c37.15,10.09,81.08,5.96,112.53-17.33c14.36-10.82,25.39-28.09,21.47-46.21
		c2.25-48.32,8.18-135.73,10.96-184.04c70.61-0.43,194.16-1.12,264.75-1.34l-0.72,10.79l-9.15,137.72l-1.27,19.07
		c-7.47-5.49-18.87-14.77-27-18.85c-10.4-5.54-21.76-9.15-33.34-11.33c-30.16-5.29-63.1-1.54-89.43,14.36
		c-14.57,8.85-27.45,23.19-27.53,40.42c-0.07,17.24,12.76,31.66,27.28,40.59c32.4,19.55,74.64,21.65,110.16,9.22
		c16.8-6.11,33.69-16.73,41.97-32.49c2.9-5.54,4.4-11.5,4.41-17.64c0.04-2.18-0.43-4.89-0.86-7.32l0.09-1.16
		c4.97-68.93,15.61-207.77,20.9-276.67l7.82,8.38c-74.73-0.55-225-2.45-299.71-3.44l4.39-4.1
		C212.2,500.61,204.42,590.3,197.52,665.54c1.42-30,4.29-90.44,5.87-120.44c1.67-31.98,4.76-92.47,6.54-124.45
		c76.82-1.02,227.07-2.87,303.88-3.49l8.34-0.08l-0.52,8.46c-4.17,64.69-12.97,219.64-17.38,274.52c1.18,5.83,1.31,12.57,0.37,18.6
		c-4.84,29.96-31.64,50.21-58.2,59.98c-41.05,14.74-90.28,12.28-128.05-10.49c-19.97-11.94-37.52-33.62-37.19-58.26
		c-0.21-24.65,17.37-46.26,37.36-58.2c31.06-18.86,68.94-23.27,104.25-17.05c19.24,3.62,37.95,10.79,53.72,22.62l-16.63,7.57
		l9.83-137.68l10.03,10.74c-61.27-0.16-184.47-0.87-245.72-1.24l8.78-8.2c-3.3,40-10.21,139.52-13.52,172.01
		c6.68,36.32-25.68,64.25-56.82,74.75c-30.32,10.58-64.03,10.93-94.71,1.63c-25.34-7.92-51.31-24.03-60.32-50.42
		c-9.43-28.31,8.3-54.62,32.31-68.38C92.82,632.83,157.67,634.74,197.52,665.54L197.52,665.54z"/>
</g>
<g>
	<path class="st0" d="M547.59,99.64c13.96,55.86,29.34,119.51,42.71,175.56l1.85,7.75l-7.69-2.73c-27.73-9.36-59.69-2.4-83.73,13.23
		c-16.15,10.7-32.89,29.71-27.16,50.05c3.91,12.55,16.29,20.2,28.85,23.42c27.41,6.78,57.96-0.86,80.57-17.46
		c12.51-9.53,24.5-24.02,22.61-40.26c-0.45-3.21-1.47-6.03-3.09-8.97c-7.29-32.38-21.66-96.28-28.87-128.67l-2.04-9.1
		c48.44-14.33,137.13-40.39,185.66-54.53l10.78-3.15c-0.05,1.13,23.47,107.12,24.32,112.03l4.07,18.73l-17.95-6.79
		c-31.28-11.28-72.55-0.01-95,24.07c-12.96,13.82-17.89,33.57-1.52,46.62c24.15,18.18,62.98,12.39,88.19-1.63
		c14.24-8.02,28.45-20.7,32-36.94c0.78-3.71,0.81-7.41,0.11-11.04c-0.46-2.52-1.42-4.79-2.64-7.22l-0.19-0.91l-20.84-101.8
		c-5.21-25.32-15.42-76.55-20.52-101.9l6.56,3.9C695.57,60.69,616.69,81.8,547.59,99.64c67.8-22.1,145.86-46.48,214.12-67.76
		l5.26-1.64c6.6,27.92,18.51,78.77,25.01,106.74l23.39,101.27l-0.68-1.92c4.4,8.23,5.7,18.56,3.93,27.69
		c-3.41,17.83-15.32,31.91-29.11,42.4c-26.9,19.66-62.96,28.4-95.57,19.94c-29.47-7.65-49.95-33.03-39.36-64.01
		c17.25-47.02,86.46-70.18,131.32-53.05l-13.88,11.94l-22.07-101.02l13.16,7.83l-88.41,25.6l-88.46,25.42l7-11.77l13.54,63.9
		l13.45,63.92l-0.77-2.17c15.24,31.24-10.26,62.82-36.84,77.12c-31.42,17.39-77.44,23.01-107.43-0.2
		c-24.03-19.55-19.95-50.15-0.09-70.94c24.94-26.18,65.65-38.06,100.77-30.5c3.97,0.91,7.89,2.09,11.71,3.61l-5.84,5.02
		C570.61,220.53,558.11,156.25,547.59,99.64L547.59,99.64z"/>
</g>
<g>
	<g>
		<path class="st0" d="M1033.7,331.89c-0.16,0.04-0.3,0.13-0.5,0.09c-0.19-0.08-0.28-0.21-0.42-0.31c-0.75-0.66-1.41-1.43-2.04-2.21
			c-1.42-1.89-3.39-4.36-5.03-5.99c-8.11-8.49-16.92-16.22-26.08-23.55c-12.59-10.12-25.5-18.72-36.82-31.05
			c-21.31-22.3-27.47-58.83-5.05-82.7c21.7-23.07,57.72-23.16,79.03,0.52c1.16,1.3,2.43,3.16,3.56,4.49
			c0.07,0.09,0.2,0.19-0.18-0.17c-0.6-0.5-0.69-0.61-1.55-1.14c-0.25-0.15-1.17-0.69-2.65-1.07c-1.94-0.71-6.29,0.02-7.04,0.73
			c-1.96,1.02-2.85,2.08-2.55,1.77c-0.2,0.18-0.51,0.53-0.45,0.46l-0.05,0.06l0.07-0.08c0.67-0.87,1.82-2.37,2.48-3.26
			c25.08-30.84,75.01-23.62,90.53,12.78c6.06,14.38,5.27,30.84-0.71,45.05c-3.45,8-8.68,15.39-14.47,21.6
			c-11.34,12.2-24.18,20.91-36.65,31.11C1055.01,308.97,1043.34,319.44,1033.7,331.89L1033.7,331.89z M1033.7,331.89
			c6.78-14.4,17.03-27.12,27.77-38.82c10.51-11.42,22.39-21.76,31.74-34.03c5.7-7.58,10.18-15.68,11.85-24.94
			c1.47-8.33,0.76-17.68-3-25.26c-10.47-21.42-40.51-26.15-56.5-8.26c-0.04,0.04-0.13,0.13-0.01,0c0.2-0.24,0.08-0.09,0.07-0.08
			l-0.46,0.6l-1.14,1.54c-1.02,1.33-1.88,2.63-3.12,3.83c0.24-0.25-0.71,0.86-2.74,1.92c-0.8,0.77-5.24,1.51-7.26,0.78
			c-3.33-0.97-4.72-2.35-6.52-4.38c-1.06-1.27-2.27-2.91-3.25-4.21c-0.01-0.01-0.04-0.05-0.01-0.01c0.02,0.02,0.23,0.26,0.15,0.18
			l-0.27-0.28l-0.54-0.55c-0.95-1.06-2.28-2.22-3.35-3.16c-17.07-14.18-43.45-6.92-52.67,12.78c-7.69,16.67-1.96,36.45,8.94,50.55
			c8.94,11.94,21.29,22.63,31.8,33.82c7.28,7.76,14.22,15.93,20.21,24.74c1.45,2.21,3.01,4.47,4.27,6.79l1.79,3.54
			c0.3,0.58,0.6,1.16,0.94,1.72c0.25,0.42,0.52,0.83,0.84,1.17C1033.36,331.94,1033.55,331.9,1033.7,331.89L1033.7,331.89z"/>
	</g>
</g>
<g>
	<g>
		<path class="st0" d="M244.39,1042.67c-0.16,0.03-0.31,0.11-0.51,0.06c-0.19-0.09-0.27-0.23-0.4-0.34
			c-0.71-0.71-1.31-1.52-1.9-2.33c-1.3-1.98-3.11-4.57-4.64-6.29c-7.56-8.98-15.87-17.26-24.54-25.15
			c-11.92-10.89-24.27-20.3-34.79-33.31c-19.87-23.6-23.71-60.45,0.17-82.86c23.11-21.66,59.06-19.47,78.84,5.5
			c1.08,1.37,2.22,3.31,3.27,4.71c0.06,0.09,0.19,0.21-0.16-0.18c-0.56-0.54-0.65-0.66-1.48-1.23c-0.24-0.17-1.13-0.76-2.58-1.24
			c-1.89-0.83-6.28-0.37-7.07,0.29c-2.02,0.9-2.98,1.89-2.66,1.6c-0.21,0.17-0.54,0.5-0.47,0.43l-0.05,0.06l0.07-0.08
			c0.72-0.83,1.97-2.25,2.68-3.09c26.98-29.2,76.35-18.85,89.54,18.46c5.14,14.74,3.31,31.12-3.55,44.92
			c-3.95,7.76-9.64,14.81-15.8,20.64c-12.09,11.46-25.45,19.34-38.54,28.74C267.09,1021.15,254.79,1030.86,244.39,1042.67
			L244.39,1042.67z M244.39,1042.67c7.67-13.94,18.7-25.99,30.17-36.99c11.21-10.73,23.72-20.3,33.82-31.96
			c6.17-7.2,11.15-15.01,13.4-24.14c1.99-8.22,1.88-17.6-1.4-25.4c-9.1-22.04-38.78-28.66-55.87-11.81c-0.05,0.04-0.13,0.12-0.01,0
			c0.22-0.22,0.09-0.08,0.08-0.07l-0.49,0.57l-1.23,1.46c-1.1,1.26-2.04,2.5-3.36,3.62c0.26-0.23-0.76,0.81-2.86,1.75
			c-0.85,0.72-5.33,1.18-7.3,0.32c-3.27-1.18-4.57-2.64-6.23-4.78c-0.98-1.33-2.08-3.05-2.98-4.41c-0.01-0.01-0.04-0.05-0.01-0.01
			c0.01,0.02,0.21,0.28,0.14,0.19l-0.25-0.29l-0.51-0.59c-0.88-1.12-2.14-2.36-3.15-3.36c-16.14-15.23-42.92-9.64-53.37,9.43
			c-8.72,16.16-4.26,36.26,5.74,51.01c8.17,12.48,19.82,23.93,29.61,35.76c6.78,8.21,13.19,16.8,18.61,25.96
			c1.3,2.29,2.73,4.65,3.83,7.05l1.56,3.64c0.26,0.6,0.53,1.2,0.83,1.77c0.22,0.43,0.47,0.86,0.76,1.22
			C244.04,1042.7,244.23,1042.67,244.39,1042.67L244.39,1042.67z"/>
	</g>
</g>
<g>
	<g>
		<path class="st0" d="M305.98,271.99c-0.21,0.12-0.4,0.29-0.68,0.31c-0.29-0.03-0.47-0.19-0.7-0.29c-1.32-0.67-2.53-1.54-3.72-2.41
			c-1.81-1.41-5.16-4.06-6.99-5.2c-15.51-9.92-32-18.17-48.82-25.6c-32.37-14.3-69.45-25.45-92.42-54.62
			c-25.96-32.75-26.66-77.98,4.97-107.36c25.04-23.17,60.92-26.51,89.94-8.64c2.2,1.41,4.65,3.44,6.79,4.85
			c0.22,0.15,0.51,0.3,0.19,0.13l-0.22-0.11c-1.42-0.53-1.78-0.74-4.21-0.77c-2.04-0.14-6,1.77-6.5,2.64
			c-2.06,2.13-1.84,2.31-2.17,2.82l0.02-0.04l0.09-0.21c0.62-1.57,1.65-4.24,2.23-5.82c0.45-1.1,0.97-2.6,1.62-3.7
			c15.22-30.41,48.94-46.29,82.02-39.69c36.08,7.25,58.73,37.49,60.16,73.57c0.54,12.72-2.03,25.46-6.49,37.3
			c-10.01,26.41-27.78,48.08-42.82,71.17C325.56,229.82,313.77,249.98,305.98,271.99L305.98,271.99z M305.98,271.99
			c6.1-30.82,21.12-59.34,36.64-86.37c7.62-13.28,15.32-26.64,21.01-40.71c4.03-10.1,7.04-20.69,7.65-31.54
			c1.12-20.26-6.37-42.05-22.71-54.69c-27.62-21.25-68.98-12.74-84.48,18.81l-0.15,0.27c-0.05,0.09-0.12,0.23-0.06,0.11
			c0.09-0.21-0.01,0.04-0.05,0.12c-0.74,1.88-1.81,4.87-2.55,6.77c-0.24,0.58-0.55,1.38-0.82,1.94c-0.04,0.1-0.34,0.7-0.57,1.11
			c0.16-0.29-0.46,1.05-2.13,2.66c-0.57,0.99-4.64,2.94-6.8,2.8c-2.45-0.01-3.1-0.29-4.48-0.75c-3.96-1.66-6.66-4.21-9.97-6.56
			c0.01,0.01-0.02-0.02,0.05,0.03c0.05,0.04,0.13,0.08,0.04,0.03c-1.1-0.62-2.73-1.54-3.81-2.16c-1.36-0.74-3.11-1.45-4.48-2.13
			c-26.28-11.22-56.23,0.59-69.75,25.31c-16.06,28.29-2.21,63.81,21.25,83.54c20.07,17.42,45.61,27.76,68.93,40.91
			c13.7,7.69,27.09,16.08,39.5,25.73c3.03,2.43,6.26,4.89,9.07,7.57l4.13,4.16c1.21,1.17,2.41,2.42,3.86,3.24
			C305.52,272.22,305.76,272.08,305.98,271.99L305.98,271.99z"/>
	</g>
</g>
</svg>
