<?xml version="1.0" encoding="utf-8"?>
<!-- Generator: Adobe Illustrator 29.8.2, SVG Export Plug-In . SVG Version: 9.03 Build 0)  -->
<svg version="1.1" id="Layer_1" xmlns="http://www.w3.org/2000/svg" xmlns:xlink="http://www.w3.org/1999/xlink" x="0px" y="0px"
	 viewBox="0 0 1133.86 1133.86" style="enable-background:new 0 0 1133.86 1133.86;" xml:space="preserve">
<style type="text/css">
	.st0{fill:#A56D29;}
	.st1{fill:#AC8A51;}
</style>
<g>
	<g>
		<path class="st0" d="M462.47,621.39c-9.98-12.51-23.03-33.08-31.38-47.05c-13.59-22.76-25.16-47.14-34.09-72.45
			c-3.8,8.52-6.94,17.57-9.36,26.94c33.08,71.39,87.37,132.61,147.3,185.59c1.9-4.79,3.86-9.97,5.84-15.47
			c-30.34-41.58-57.37-85.51-78.11-132.77c-11.58-26.38-25.64-64.3-36.81-106.09c-2.05,1.92-4.06,3.92-6.01,6.06
			c-6.66,7.31-12.57,15.79-17.63,25.12c16.36,46.87,37.51,92.03,64.45,133.76C464.02,625.11,463.73,622.98,462.47,621.39z"/>
		<path class="st0" d="M1037.55,320.21C968.36,200.1,816.3,193.4,730.11,298.52c-9.66,11.78-16.57,26.3-25.41,37.45
			c-0.68,0.85-1.58,4.41-3.21,1.36c-0.16-0.3,0.67-4.64,0.37-6.69c-14.73-98.84-94.22-194.69-203.06-178.78
			c-54.97,8.03-98.39,43.04-116.66,95.74c-18.65,53.83-30.98,98.23-27.13,155.96c1.4,20.94,4.69,41.17,9.62,60.71
			c4.88-8.42,10.37-16.48,16.45-24.02c-1.94-11.82-3.26-23.72-3.87-35.64l8.27,30.4c8.57-9.82,18.2-18.63,28.79-26.04
			c-18.88-102.75-9.92-210.19,96.94-222.66c114.93-13.41,173.06,109.27,166.3,207.42c-0.42,6.12-4.06,21.5-3.54,25.79
			c0.35,2.86,4.8,4.85,6.84,1.95c4.83-6.86,7.81-20.42,12.29-28.15c2.8,0.52-0.57,4.58,1.38,6.68c4.2,4.52,4.23-1.16,5.73-3.88
			c36.16-65.68,129.14-120.71,205.03-110.89c49.07,6.35,71.08,19.43,92.66,63.74c52.64,108.12-14.91,235.85-89.81,315.1
			C795.34,783.39,632.8,851.35,474.87,886.17c-2.65,1.19-3.29,6.15-0.62,7.5c95.78,3.03,189.9-10.55,279.37-44.63
			c113.11-43.08,252.03-138.21,298.12-254.27C1090.71,496.61,1089.96,411.17,1037.55,320.21z M695.25,354.35l-1.59-34.05
			c1.98,0.72,2.07,5.21,2.42,7.16C697.57,335.72,699.71,346.96,695.25,354.35z M860.38,267.15c-10.59,2.97-20.98,5.29-31.27,9.35
			c-38.85,15.34-81.43,46.54-108.04,78.78l-19.85,25.59c32.91-60.31,91.93-114.35,163.9-116.25
			C864.37,266.64,862.1,266.67,860.38,267.15z M916.98,724.9c-80.08,69.92-184.15,121.33-287.84,144.84
			c-5.17,1.17-11.2,2.8-16.47,2.51l62.25-18.22c123.56-41.75,239.83-112.78,318.31-218.7l22.19-32.62
			C994.82,650.66,955.84,690.98,916.98,724.9z"/>
	</g>
	<path class="st0" d="M350.44,542.01c9.81-78.39,70.86-155.6,157.17-145.05c43.59,5.33,78.56,32.19,93.97,73.51
		c15.74,42.2,26.3,77.06,24.32,122.76c-4.75,109.73-75.45,196.21-154.57,265.29c-3.11,2.4-5.72-0.58-4.57-3.76
		c30.46-40.68,57.68-83.89,77.06-131.02c32.48-78.97,89.57-286.77-45.39-299.32c-91.07-8.47-134.75,89.55-127.59,167
		c0.45,4.83,3.61,16.92,3.27,20.32c-0.22,2.27-3.7,3.92-5.37,1.67c-3.94-5.33-6.55-15.99-10.23-22.02c-2.2,0.47,0.54,3.61-0.96,5.31
		c-3.24,3.65-3.37-0.84-4.6-2.96c-29.8-51.24-104.29-93.01-164.09-83.84c-38.66,5.93-55.82,16.67-72.05,52.08
		c-39.61,86.42,16.15,186.12,76.8,247.37c91.31,92.2,221.03,142.91,346.48,167.51c2.12,0.89,2.71,4.8,0.63,5.91
		c-75.64,4.17-150.27-4.82-221.61-30.1c-90.19-31.96-201.74-104.57-240.3-195.44c-32.62-76.85-33.61-144.39,6.13-217.25
		c52.46-96.2,172.51-104.31,242.57-22.83c7.85,9.13,13.58,20.48,20.78,29.13c0.55,0.66,1.33,3.46,2.56,1.02
		C350.97,547.05,350.24,543.63,350.44,542.01z M223.99,494.77c8.42,2.15,16.68,3.79,24.88,6.81c30.99,11.4,65.21,35.27,86.84,60.26
		l16.16,19.86c-27.12-47.06-74.77-88.67-131.68-88.84C220.83,494.43,222.62,494.42,223.99,494.77z M356.73,533.68
		c-1.55,0.61-1.54,4.16-1.78,5.7c-1.02,6.56-2.5,15.49,1.16,21.24L356.73,533.68z M545,767.37c7.66-10.07,17.59-26.57,23.93-37.77
		c23.13-40.88,38.12-87.99,39.45-135.13l-12.19,49.29c-12.62,44.33-30.34,87.24-54.44,126.56
		C543.85,770.33,544.04,768.64,545,767.37z M381.41,955.15c-98.42-30.71-191.62-84.69-255.6-166.95l-18.14-25.37
		c17.16,37.51,48.72,68.65,80.05,94.75c64.58,53.78,147.77,92.48,230.16,109.15c4.11,0.83,8.9,2.01,13.06,1.68L381.41,955.15z"/>
</g>
<g>
	<path d="M-1697.85,377.86c1.18,2.21,1.83-0.37,2.32-0.99c6.42-8.09,11.42-18.61,18.43-27.16c62.5-76.23,172.76-71.36,222.94,15.73
		c38,65.96,38.55,127.91,10.28,199.09c-33.42,84.16-134.15,153.14-216.17,184.38c-64.88,24.71-133.13,34.56-202.58,32.36
		c-1.93-0.98-1.47-4.57,0.45-5.44c114.52-25.25,232.38-74.53,314.14-161.05c54.31-57.47,103.3-150.09,65.12-228.49
		c-15.64-32.13-31.61-41.61-67.19-46.22c-55.03-7.13-122.45,32.78-148.67,80.41c-1.09,1.97-1.11,6.09-4.16,2.81
		c-1.41-1.52,1.03-4.46-1-4.84c-3.25,5.6-5.41,15.44-8.91,20.41c-1.48,2.1-4.71,0.66-4.96-1.41c-0.38-3.11,2.26-14.27,2.56-18.7
		c4.9-71.17-37.25-160.12-120.59-150.4c-123.49,14.41-66.68,203.73-35.2,275.46c18.79,42.8,44.67,81.85,73.48,118.5
		c1.12,2.89-1.2,5.68-4.11,3.55c-74.04-61.65-140.73-139.44-147.44-239.97c-2.79-41.86,6.14-74.06,19.67-113.09
		c13.24-38.22,44.73-63.6,84.59-69.43c78.93-11.53,136.57,57.97,147.25,129.64C-1697.36,374.49-1697.96,377.64-1697.85,377.86z
		 M-1579.2,325.13c-52.19,1.38-94.99,40.56-118.85,84.3l14.39-18.56c19.3-23.38,50.18-46,78.35-57.12
		c7.46-2.95,14.99-4.63,22.67-6.78C-1581.39,326.62-1579.74,326.59-1579.2,325.13z M-1702.38,390.2c3.23-5.36,1.68-13.51,0.6-19.5
		c-0.25-1.41-0.32-4.67-1.76-5.19L-1702.38,390.2z M-1868.13,586.47c-22.95-35.53-40.11-74.5-52.64-114.89l-12.23-44.94
		c2.23,43.2,16.98,86.09,39.07,123.07c6.05,10.14,15.52,25.05,22.76,34.12C-1870.25,584.98-1870.05,586.53-1868.13,586.47z
		 M-1762.26,765.75c3.82,0.21,8.19-0.97,11.94-1.82c75.19-17.05,150.65-54.33,208.72-105.03c28.18-24.6,56.44-53.84,71.38-88.6
		l-16.09,23.66c-56.91,76.81-141.22,128.31-230.81,158.59L-1762.26,765.75z"/>
</g>
<g>
	<path d="M-1952.41,526.27c7.12-56.84,51.38-112.83,113.97-105.18c31.61,3.87,56.96,23.34,68.14,53.3
		c11.41,30.6,19.07,55.88,17.64,89.01c-3.44,79.57-54.71,142.28-112.08,192.37c-2.26,1.74-4.15-0.42-3.31-2.73
		c22.09-29.49,41.82-60.83,55.88-95.01c23.55-57.27,64.95-207.94-32.91-217.04c-66.04-6.14-97.71,64.94-92.52,121.09
		c0.32,3.5,2.61,12.27,2.37,14.73c-0.16,1.64-2.69,2.84-3.89,1.21c-2.86-3.87-4.75-11.6-7.42-15.97c-1.6,0.34,0.39,2.62-0.7,3.85
		c-2.35,2.65-2.44-0.61-3.34-2.14c-21.61-37.15-75.63-67.44-118.98-60.8c-28.03,4.3-40.48,12.09-52.24,37.77
		c-28.72,62.67,11.71,134.96,55.69,179.37c66.21,66.86,160.27,103.63,251.24,121.46c1.53,0.65,1.97,3.48,0.46,4.29
		c-54.85,3.02-108.97-3.5-160.7-21.83c-65.4-23.17-146.29-75.83-174.25-141.72c-23.65-55.73-24.37-104.7,4.45-157.53
		c38.04-69.76,125.1-75.64,175.9-16.55c5.69,6.62,9.85,14.85,15.07,21.12c0.4,0.48,0.97,2.51,1.86,0.74
		C-1952.02,529.93-1952.56,527.45-1952.41,526.27z M-2044.1,492.01c6.11,1.56,12.09,2.75,18.04,4.94
		c22.47,8.27,47.29,25.58,62.97,43.7l11.72,14.4c-19.67-34.12-54.22-64.3-95.49-64.42C-2046.4,491.77-2045.09,491.76-2044.1,492.01z
		 M-1947.85,520.23c-1.12,0.44-1.12,3.02-1.29,4.13c-0.74,4.76-1.82,11.23,0.84,15.4L-1947.85,520.23z M-1811.32,689.68
		c5.55-7.3,12.76-19.26,17.35-27.39c16.77-29.64,27.65-63.8,28.6-97.99l-8.84,35.74c-9.15,32.15-22,63.26-39.48,91.77
		C-1812.16,691.84-1812.03,690.61-1811.32,689.68z M-1929.95,825.85c-71.37-22.27-138.95-61.41-185.34-121.06l-13.15-18.4
		c12.44,27.2,35.33,49.78,58.05,68.7c46.83,39,107.15,67.06,166.89,79.15c2.98,0.6,6.45,1.45,9.47,1.22L-1929.95,825.85z"/>
</g>
<g>
	<path class="st1" d="M-785.09,60.89c65.53,91.7,91.79,255.15,94.61,367.04c0.51,27.77-0.28,55.87-4.26,83.61
		c-2.14,14.36-5.07,29.14-10.54,43.05c-3.69,9.28-9.15,19.34-17.21,26.29c-11.25,9.93-26.83,11.72-40.3,5.34
		c-17.59-8.31-29.69-24.16-40.33-39.49c-21.14-32.2-36.93-65.12-50.35-100.96c-3.17-8.86-6.23-18.26-8.63-27.39
		c-7.73-30.17-12.38-61.83-0.65-92.22c14.98-37.39,52.4-49.91,89.63-42.1c71.23,15.81,126.65,82,142.09,151.44
		c4.82,21.5,6.22,44.04,4.35,65.99c-3.25,41.13-9.58,82.32-17.8,122.72c-19.8,98.29-50.42,193.16-76.19,289.33
		c-13.34,52.2-27.2,105.12-25.98,159.42c-5.48-36-2.33-72.92,2.37-108.87c17.27-120.89,52.68-238.61,70.69-358.84
		c5.73-37.08,10.17-74.95,11.71-112.46c1.33-34.77-8-69.88-26.39-99.43c-20.94-33.33-53.74-62.46-92.53-71.11
		c-12.04-2.27-24.49-2.39-34.56,4.06c-11.34,7.56-14.66,21.06-15.62,34.72c-0.44,7.46,0.03,15.36,0.99,23.37
		c4.66,33.26,17.72,66.15,32.04,97.01c10.16,21.2,30.19,62.14,49.6,73.5c0.83,0.51,1.81,0.72,2.54,0.94c0.05,0,0.21,0.01,0.66-0.22
		c6.53-4.51,10.74-16.87,13.34-24.73c9.82-33.16,11.86-68.43,13.13-103.08C-716.33,319.75-732.45,155.46-785.09,60.89L-785.09,60.89
		z"/>
</g>
<g>
	<g>
		<g>
			<g>
				<g>
					<path class="st1" d="M-1254.41,1132.53c-0.44,1.67,4.59,1.07,5.49,1.33C-1250.03,1131.06-1255.72,1132.6-1254.41,1132.53z"/>
					<polygon class="st1" points="-1265.82,1104.9 -1263.77,1105.39 -1268.8,1101.31 					"/>
					<path class="st1" d="M-1265.73,1079.06c-8.57,2.44,1.38,9.36-1.66,13.97l-1.95,0.76l6.89,2.08
						C-1263.54,1090.27-1268.12,1083-1265.73,1079.06z"/>
					<path class="st1" d="M-1247.2,1065.28c-3.33,0.85-2.87-2.98-1.04,3.21c0.36-0.31,0.57-0.4,0.84-0.58
						C-1247.45,1067.35-1247.44,1066.59-1247.2,1065.28z"/>
					<path class="st1" d="M-1247.4,1067.91C-1247.16,1070.63-1244.6,1066.13-1247.4,1067.91L-1247.4,1067.91z"/>
					<path class="st1" d="M-1249.31,1055.34l2.98,3.58c1.97-0.75,2.41-3.94,3.84-2.75
						C-1244.12,1052.5-1246.08,1053.25-1249.31,1055.34z"/>
					<path class="st1" d="M-1255.56,1051.94l1.26,1.86C-1253.48,1053.48-1253.19,1052.99-1255.56,1051.94z"/>
					<path class="st1" d="M-1251.64,1057.74l-2.66-3.94c-1.38,0.52-4.16,0.57,0.96,1.81
						C-1255.88,1055.29-1253.44,1056.07-1251.64,1057.74z"/>
					<path class="st1" d="M-1252.95,1059.97c-1.86,2.01-3.04,4.61-6,1.01C-1257.77,1067.84-1251.75,1066.83-1252.95,1059.97z"/>
					<path class="st1" d="M-1274.59,1077.74l-2.51,2.69l2.87,2.33C-1275.65,1081.59-1271.9,1077.57-1274.59,1077.74z"/>
					<path class="st1" d="M-1244.88,1033.01c-1.82-0.22-4.86,1.21-7.19,1.47l2.09,2.65
						C-1248.73,1035.77-1247.58,1033.19-1244.88,1033.01z"/>
					<path class="st1" d="M-1252.07,1034.49l-3.13-3.96C-1255.56,1034.06-1254.08,1034.71-1252.07,1034.49z"/>
					<polygon class="st1" points="-1265.07,1051.31 -1258.5,1057.81 -1265.16,1050.05 					"/>
					<polygon class="st1" points="-1244.65,1017.88 -1240.43,1020.13 -1246.8,1016.13 					"/>
					<path class="st1" d="M-1245.39,1007.85c3.49,1.66,5.91-2.28,8.06-0.52c-0.63-2.73-3.63-5.05-6.32-7.15
						C-1242.14,1002.4-1242.53,1004.78-1245.39,1007.85z"/>
					<path class="st1" d="M-1247.58,996.65c0.84,1.11,2.34,2.27,3.93,3.52C-1244.45,998.99-1245.61,997.83-1247.58,996.65z"/>
					<path class="st1" d="M-1254.29,1023.78c1.1-0.31,3.99-0.9,5.2-3.12l-5.13,1.56
						C-1254.25,1022.69-1254.27,1023.23-1254.29,1023.78z"/>
					<path class="st1" d="M-1254.38,1022.27l0.16-0.05c0.11-1.69,0.23-2.86,0.29-3.37
						C-1253.98,1019.28-1254.1,1020.31-1254.38,1022.27z"/>
					<path class="st1" d="M-1254.32,1024.17c0.01-0.14,0.02-0.25,0.02-0.39C-1254.8,1023.93-1254.97,1024.02-1254.32,1024.17z"/>
					<path class="st1" d="M-1260.43,1040.92c-2.87-2.33-5.94-7.18-10.31-2.48C-1267.24,1040.11-1264.75,1037.42-1260.43,1040.92z"/>
					<path class="st1" d="M-1260.73,1026.1l-1.17,4.21c1.35-0.08,3.33-0.84,4.75,0.31L-1260.73,1026.1z"/>
					<polygon class="st1" points="-1262.35,1024.04 -1260.73,1026.1 -1260.29,1024.54 					"/>
					<path class="st1" d="M-1252.38,1003.86c-2.23-1.82-2.42-3.81-2.78-6.05c-1.01,2.41-1.55,4.9-1.54,7.26
						C-1255.08,1005.4-1252.19,1006.44-1252.38,1003.86z"/>
					<path class="st1" d="M-1253.8,1012.81c-0.12-0.13-0.18-0.29-0.29-0.4C-1254.53,1012.65-1254.67,1012.85-1253.8,1012.81z"/>
					<path class="st1" d="M-1255.12,975.7c-0.28,0.12-0.63,0.23-0.93,0.35c0.3,0.03,0.59,0.05,0.89,0.08L-1255.12,975.7z"/>
					<path class="st1" d="M-1257.65,1005.47c-0.99,1.81,0.26,2.89,1.85,3.92c-0.52-1.35-0.85-2.79-0.89-4.33
						C-1257.42,1004.92-1257.9,1004.89-1257.65,1005.47z"/>
					<path class="st1" d="M-1249.97,990.49c-1.07,0.94-1.98,2.01-2.82,3.13C-1251.17,992.7-1248.64,990.82-1249.97,990.49z"/>
					<path class="st1" d="M-1252.67,1011.79c0.08,0.09,0.18,0.17,0.23,0.27C-1251.35,1011.47-1251.88,1011.55-1252.67,1011.79z"/>
					<path class="st1" d="M-1252.67,1011.79c-0.74-0.93-2-1.66-3.13-2.4c0.4,1.1,0.95,2.12,1.71,3.01
						C-1253.73,1012.18-1253.18,1011.96-1252.67,1011.79z"/>
					<path class="st1" d="M-1288.04,969c4.75,0.32,9.15,5.08,4.05,9.18c3.56,4.04,19.2,1.4,27.94-2.13
						c-2.07-0.13-3.99-0.13-6.8-4.28c-2.6,1.46-6.07,9.23-10.37,5.72c-2.45-5.51,1.68-4.51,4.2-7.19
						c-5.92,2.28-8.62-7.01-17.33-5.81l3.06,4.83C-1284.64,969.41-1286.8,967.66-1288.04,969z"/>
					<path class="st1" d="M-1256.54,983.98l0.59,1.71c0.83-1.95,2.73-3.35,6.45-5.92c-2.32-2.85-4.08-3.44-5.67-3.63l-0.66,8.43
						L-1256.54,983.98z"/>
					<path class="st1" d="M-1255.93,993.37c-5.17-1.34-7.37-5.45-12.97-2.93c0.36,5.02,4.32,3.52,6.56,6.52
						c-1.28-8.1,2.88,2.33,5.81-3.53c0.88,1.59,1.15,3.02,1.37,4.38c0.63-1.46,1.41-2.87,2.36-4.19c-0.12,0.07-0.21,0.13-0.32,0.19
						l0.02,0.04c-0.03,0-0.05-0.01-0.08-0.01c-0.64,0.35-1.04,0.46-0.66,0.07c-0.06-0.03-0.09-0.13-0.11-0.17
						c-0.72-0.05-1.35-0.2-1.95-0.37c1.07-2.35,1.34-0.37,1.95,0.37c0.25,0.03,0.49,0.09,0.77,0.1c0.03-0.01,0.05-0.02,0.06-0.03
						l-2.84-8.12C-1256.66,987.41-1256.52,989.56-1255.93,993.37z"/>
					<path class="st1" d="M-1281.87,1034.11c0.46-0.25,0.83-0.24,1.2-0.26C-1281.3,1033.32-1281.73,1033.12-1281.87,1034.11z"/>
					<path class="st1" d="M-1278.74,1030.77c0.72,0.59,2.79,1.08,2.26,3c-1.55,1.66-2.48-0.01-4.18,0.08
						c1.37,1.16,3.71,4.05,6.22,0.42l-0.7-0.57c1.78-3.27,8.23-7.47,8.94-6.9C-1270.86,1027.75-1274.18,1028.59-1278.74,1030.77z"/>
					<path class="st1" d="M-1268.65,1011.84l-2.54-6.76l-4.48,3.44l2.69-0.17C-1274.03,1012.19-1270.72,1011.36-1268.65,1011.84z"/>
					<polygon class="st1" points="-1252.55,974.93 -1247.09,975.82 -1254.8,971.92 					"/>
					<polygon class="st1" points="-1253.2,966.14 -1248.45,966.47 -1251.32,964.15 					"/>
					<path class="st1" d="M-1312.12,470.45l-1.35-1.99C-1313.06,469.41-1312.6,470.01-1312.12,470.45z"/>
					<path class="st1" d="M-1312.45,484.83l2.34,0.35C-1311.4,484.52-1312.35,484.25-1312.45,484.83z"/>
					<path class="st1" d="M-1253.74,750.41c4.44-2.89,11.31-6.12,5.97-5.78l-5.2,0.89
						C-1252.04,747.54-1252.62,749.09-1253.74,750.41z"/>
					<path class="st1" d="M-1284.82,602.66c-0.5,0.28-1.05,0.56-1.58,0.85c1.78,0.7,3.43,1.36,4.98,1.95
						C-1282.49,604.62-1283.62,603.66-1284.82,602.66z"/>
					<path class="st1" d="M-1306.36,600.62l3.36-3.81C-1304.18,597.66-1305.3,598.89-1306.36,600.62z"/>
					<path class="st1" d="M-1317.64,391.92l-5.3-2.32C-1322.92,393.23-1320.25,391.63-1317.64,391.92z"/>
					<path class="st1" d="M-1255.12,876.18c2.03-2.5,2.89-4.48,3.14-6.23C-1254.97,872.96-1259.45,875.38-1255.12,876.18z"/>
					<path class="st1" d="M-1256.88,476.11c-0.94-1.22-2-1.73-3.16-1.7C-1259.15,475.66-1258.15,476.37-1256.88,476.11z"/>
					<path class="st1" d="M-1252,862.74c-0.52,0.44-0.78,0.87-1.22,1.32c0.87,1.83,1.58,3.66,1.24,5.89
						C-1249.75,867.73-1248.38,865.18-1252,862.74z"/>
					<path class="st1" d="M-1313.33,107.1c0.23-0.21,0.35-0.46,0.62-0.64C-1313.41,106.39-1313.45,106.68-1313.33,107.1z"/>
					<path class="st1" d="M-1260.8,24.13c0.32,0.82,0.33,2.15,0.4,3.41C-1260.04,26.92-1260.08,25.89-1260.8,24.13z"/>
					<path class="st1" d="M-1250.93,930.8C-1250.59,932.66-1250.35,931.09-1250.93,930.8L-1250.93,930.8z"/>
					<path class="st1" d="M-1271.52,939.86c-0.59-0.4-1.33-0.7-2.53-0.74C-1272.8,939.27-1272,939.53-1271.52,939.86z"/>
					<path class="st1" d="M-1284.4,844.18c0-0.05,0.02-0.1,0.02-0.16C-1285.4,844.57-1285.21,844.48-1284.4,844.18z"/>
					<path class="st1" d="M-1253.3,933.6c0.64-0.7,1.17-1.51,1.55-2.38C-1252.15,931.6-1252.66,932.33-1253.3,933.6z"/>
					<path class="st1" d="M-1250.84,933.23c-0.23,0.64-0.36,1.15-0.5,1.63C-1250.47,935.09-1249.93,934.88-1250.84,933.23z"/>
					<path class="st1" d="M-1251.21,928.2c0.08,1.07-0.16,2.06-0.54,3.02c0.35-0.37,0.65-0.52,0.82-0.42
						C-1251.01,930.25-1251.12,929.48-1251.21,928.2z"/>
					<path class="st1" d="M-1299.4,259.71c0.16-0.12,0.27-0.27,0.49-0.4C-1301.07,257.43-1300.72,258.25-1299.4,259.71z"/>
					<path class="st1" d="M-1307.8,701.92c0.05,0.09,0.19,0.13,0.25,0.21c0.05-0.09,0.12-0.2,0.18-0.28L-1307.8,701.92z"/>
					<path class="st1" d="M-1311.68,695.23c6.48,2.85,5.68,4.47,4.31,6.63l15.01-2.21L-1311.68,695.23z"/>
					<path class="st1" d="M-1313.62,436.02l-4.68,4.7c-7.7-5.67-5.04-9.78-11.62-5.36c16.3,0.66,1.67,18.26,17.95,18.92l-3.43,3.1
						c0.16-0.89-0.8-1.03-0.64-1.91c-7.8,6.02,11.78,4.48,9.46,12.24c-1.25,2.7-3.62,4.59-5.55,2.75l4.03,6.03
						c-0.32,1.75-3.15,1.33-2.84-0.42l1.3,9.19l-0.48-0.07c2.56,1.31,6.51,4.28,8.19,5.74c-2.34,2.34-1.73-1.17-3.76-0.57l3.95,5.09
						c-4.22,2.07-8.32-2.15-7.72-5.66c-16.27,4.75,4.1,4.22-5.4,14.48l-2.07-4.81c-9.25,3.1-5.89,6.85-11.66,12.28
						c3.01-1.29,14.53-10.88,18.59-5.35c-1.23,1.56-1.82,3.61,1.47,6.59c-5.79,0.03-4.37,2.94-4.04,6.58l-7.68-0.25
						c2.22,3.94,6.12,3.63,9.58,5.94c-0.76,4.39-6.7,5.3-11.71,6.33c-1.22,7.03,9.53-4.85,10.98,3.46
						c-2.94,5.84,0.2,9.95,4.79,16.94c-2.64,4.09-4.69-0.72-6.89,0.75l6.12,3.63c-0.15,0.89-2.03,0.6-2.98,0.46
						c2.37,3.06,7.67,0.25,9.76,5.05c8.46,1.29-12.36,9.86-2.75,15.81c-2.18,1.46-4.7-0.71-7.68-0.26
						c6.3,8.16,4.58,6.99,13.05,13.69l-5.04,5.71c5.76-4.19,12.59,1.16,18.19,5.86c2.78-1.49,5.22-2.76,6.38-3.61l4.12,7.49
						c-1.26,0.9-3.9,0.15-7.1-1.08c0.63,0.51,1.26,0.99,1.84,1.37c-2.84,2.68-7.27,1.29-11.55-0.63c1.51-0.91,3.13-1.82,4.74-2.7
						c-4.66-1.85-9.83-3.58-14.32-3.19c0.88,0.49,1.65,1.42,2.07,2.45c-1.26-0.48-2.4-0.79-3.16-0.57
						c-0.81,0.25,0.89,1.04,2.85,2.26l-8.55,1.7l3.4,0.41l-5.36,9.79c8.61,7.01,21.29,13.1,24.83,24.23
						c-6.27-2.76-10.25-0.59-17.68-0.74c7.87-3.04-3.35-8.61-1.75-14.38c-0.83,3.01-4.37,2.35-5.61,1.58l7.16,10.28
						c-6.08-0.23-4.56,2.18-7.07,4.87c12.02-2.03,8,7.66,11.69,11.85c-4.04,0.26-8.16-0.74-7.18-5.85
						c-9.05,5.63,14.12,7.28,6.43,12.8c-0.1-1.25,0.52-1.92-1.53-2.41c3.59,2.91,0.75,10.03-2.77,8.35l-0.08-1.24
						c-1.42,8.27-0.09,25.19,10.12,26.42c-1.32,0.08-12.3-1.08-14.37-1.58l34.34,14.76c-8.77-1.3-29.64,3.69-34.59-3.17
						c-1.25,1.97-2.71,4.41,0.39,8.56c1.25-1.34,12.67-3.35,13.48-1.51c-9.76,5.04-5.22,3.5-13.54,9.71
						c1.88-2.01,15.63,0.22,15.19,3.41c-2.06-0.5-13.57,0.27-15-0.9l13.49,7.92c-2.43-1.98-11.44-0.35-15.25,1.42
						c2.64-0.82-0.25,6.85,1.09,8.96l3.13-3.36c-2.04,8.95,18.98,8.84,18.27,17.71c-2.79-1.07-17.16-2.65-18.86,1.86
						c6.91,2.07,33.25,9.16,38.57,17.01l-3.95,1.51l4.5,6.02c-10.4-3.75-32.28-14.28-40.8-20.03c-3.13,3.35-4.66,0.93-4.3,5.95
						c-3.7,1.77-5.62-2.73-5.84-4.21l-2.39,11.67c8.07-0.52,8.09,8.93,14.81,8.48l-8.36-12.68c8.05-0.51,22.9,7.33,21.47,15.6
						c-3.21,2.1-14.36-1.57-17.05-1.4c2.78,1.07,5.3,7.85,3.33,8.61l-4.31-3.51c-3.03,4.6,10.69,7.51,2.99,13.05
						c-0.52,1.91-10.39,5.7-5.61,6.03c9.21-3.11,37.68-3.72,44.6-1.65c-0.62,0.67-8.8,10.03-13.35,12.21
						c-7.22,3.14-17.2-4.72-23.4-2.04c2.2,0.12,4.92,1.85,5.8,2.58c-1.88,2.01-6.83-0.83-5.83,3.53c8.18,0.73-0.69,8.86,6.91,2.06
						c2.34,4.26-1.68,4.53-1.32,9.54c5.29-1.59,17.99,4.49,20.32,8.76c-2.08-0.25-4.79,0.71-6.02,1.17
						c-0.74,8.74-4.45,13.43-4.52,21.58c-1.98,0.75-4.38,4.68-7.9,3.01c1.45,1.17,4.22,2.25,4.42,4.76c-7.07,4.86-1.1-5.6-9.6-1.9
						c4.75,0.32,6.56,6.5,9.53,10.08c7.34-1.1,1.41-8.27-1.56-11.85c10.13-0.02,20.73,6.22,25.41,14.74
						c2.51,6.77-6.54,2.93-5.1,4.11c-1.77,12.71,17.68,10.83,10.38,21.39c-6.45,4.19-12.84,0.19-17.49,1.12
						c-2.44-5.51,4.1-8.46,3.84-12.2l-3.05,4.6c-2.14-1.75-3.77-5.43-1.9-7.44c-5.8,3.51-1.11,21.48-6.46,31.29
						c2.16,1.74,4.4,4.75,7,3.33l-0.9-3.1c5.2-2.85,7.2,5.84,9.63,1.91c3.66,4.16,9.4,8.83,6.46,14.69l-7.36,1.1
						c2.15-0.13,4.38-3.83,2.14-5.48c3.26,2.44-9.96,8.99-0.32,11.66l5.1-4.11c3.7,4.18,11.51,9.35,9.19,14.54
						c7.27-2.36-0.83-1.2,7.67-4.89c-10.58,3.2,0.45-13.29-10.67-8.15c9.87-3.79,4.18-6.55,12.6-11.51
						c-2.43,0.15-4.64,1.75-3.45-2.61c-0.71-0.2-1.61-0.66-2.14-0.96c0.06-0.13,0.11-0.18,0.18-0.29c-0.09,0.09-0.2,0.15-0.29,0.24
						c-0.36-0.19-0.44-0.21-0.1,0.09c-1.06,1.04-2.34,1.88-3.69,2.22c-5.57-2.16-5.4-9.1-8.28-11.44c1.15-2.59,2.78,1.08,5.37-0.33
						l-4.31-3.5c5.39-0.35,8.95-6.87,12.11-0.78l0.24-5.49c3.02-3.23,4.23-7.67,1.96-10.41c1.17-2.59-5.97-6.54-1.75-4.28l-3.34-8.6
						l1.35-0.08c0.68-8.49-8.92-17.47,0.8-27.18c-1.36-2.86-3.02-5.81-1.49-10.59l4.66-0.93c-1.63-3.67,4.66-11.02-0.19-12.6
						c12.54-3.96,2.74-17.81,4.96-24.26l-6.09-0.24c0.35-4.44-1.38-8.7-3.83-14.21l-5.38,0.34c-4.42-4.75,3.83-12.22,3.27-19.74
						c2.06,0.51,1.52,2.42,0.28,3.77c12.15-8.98-8.84-18.95,0.01-27.1c-1.96-2.03-1.29-3.5,0.06-4.92c0.01,0.19,0.11,0.36,0.28,0.5
						c0.06-0.21,0.08-0.52,0.06-0.83c0.93-0.9,2-1.82,2.86-2.82c-1.31,0.85-2.38,1.66-2.88,2.37c-0.11-1.57-0.78-3.94-2.13-6.27
						l5.78-0.99c-0.08-0.19-0.06-0.34-0.16-0.54c2.13-2.28-2.74-1.84-7.08-0.62c-0.95-1.17-2.09-2.25-3.49-3.08
						c9.33-1.86-3.14-6.11,6.81-8.64c-4.85-1.57-3.65-11.7-13.86-12.94c1.33-0.08,1.96-0.77,2.04,0.49c1.17-2.6,2.33-5.19-0.55-7.52
						l7.35-1.1l-9.88-5.67c4.48-3.44,7.08-4.87,12.73-1.45c-8.7-8.25-3.28-6.7-11.89-13.72l4.75,0.34
						c-0.18-2.51-6.54-6.52-2.62-8.03c9.03-5.61,1.25-27.77,9.64-42.18c-13.99,2.79,6.27-6.7-4.57-7.27
						c3.3-0.84,5.17-2.85,8.05-0.51c-3.25-7.35,5.25-11.05-3.9-16.12c3.32-0.84,4.85,1.57,6.81,0.82c-0.72-0.59-2.88-2.34-0.9-3.1
						c1.97-0.75,2.78,1.08,4.22,2.24c-0.56-7.51-10.75-8.27-20.32-8.82c4.53-3.81,3.89-5.71-2.38-8.45c3.13-1.33,6.4-3.54,7.53,1.13
						c0.46-2.63,4.59-16.04-3.08-16.31c1.95-0.82,0.57-3.67-0.32-4.36c0.46-5.89,1.15-6.41,0.42-12.19l-1.25,1.6
						c-9.25-2.28-2.06-4.81-3.18-9.47l0.95,0.13c6.67-10.69-3.2-4.62,4.42-15.17l-5.75,0.57c-12.38-0.98,7.3-9.35,2.57-15.47
						l-3.29,2.21c-4.24-3.34,16.83-9.35,18.38-12.71c1.08-0.73,1.73,1.16,2.52,2.18c7.3-8.79-7.54-1.14-9.29-7.69
						c4.07-1.21,10.34,1.56,11.1-2.85c3.29-2.2-13.2-12.79-5.4-18.81c-3.13,1.33-6.26,2.64-8.62-0.4
						c-1.12-4.66,11.85-12.61,1.97-16.82c0.86-0.59,1.68-0.82,2.46-0.84c-2.55-3.57-4.24-11.59-9.59-13.73
						c19.88-3.29-9.67-22.17,8.67-22.09l-0.98-10.97l1.87,0.29c1.21-7.01-3.18-9.49-7.58-11.95c1.25-1.62,2.96-0.44,3.92-0.3
						c3.7-10.24,2.92-11.26-6.22-19.85l5.95-0.89c-3.46-2.33,9.33-14.81,2.39-24.86c0.67,0.1,1.83,0.31,2.67,1.1
						c-6.98-11.3,16.5-27.06-5.16-31.2l-5.34-7.46c-1.68,9.65-9.4-1.44-13,2.53c-1.27-3.79,6.53-9.81,7.65-5.15l-1.08,0.73
						c11.29,1.71,4-11.99,11.69-11.73c-0.56-18.99,5.7-37.5,6.18-55.28l-8.78,2.05l0.5-6.2c2.04-1.63,6.87-2.19,6.5,2.24
						c4.98-2.33-4.17-7.42-6.08-7.55c3.56-8.67,10.24,3.39,10.45,0.73l-0.66-3.61l-1.03,0.81c-3.59-2.93-7.39-3.18-6.95-8.51
						c1.76-3.37,5.41-1.73,5.75-3.05c0.62,0.01,0.91-0.44,0.25-2.03l0.75-7.82l-6.93,3.13c-3.42-3.46,0.36-7.35-7.49-3.74
						c12.11-5.29,4.35-29.16,8.1-32.41c-5.05-4.85-4.96-9.64-4.35-15.58c-1.44,1.47-9.23,2.36-8.28-2.76
						c16.08,1.87,6.98-9.37,18.55-13.51c-7.67,3.7-1.89-14.55-12.79-8.75c1.3-4.27,6.02-0.26,9.8-3.5
						c-6.23-10.16,4.05-22.4,1.95-34.96c-2.11-0.2-5.34,1.91-8.48-0.79l10.55-6.63c-1.04-2.48-12.18-2.28-4.86-6.82
						c-1.78,0.64-4.45,1.6-5.13-0.07c10.28-24.61-8.43-50.29,10.9-75.29c-4.09,3.39-4.5,1.13-4.65-1.46
						c-0.98,1.68-5.21-0.04-8.07,0.29l7.95-10.46c-7.94-1.91-0.54-11.22-8.13-12.31l1.36,3.31c-8.96-4.41-19.91,6.17-31.41,5.52
						c10.18,4.93-15.08,13.01-0.5,21.11c-2.34,1.79-3.7-1.52-6.37-0.57c4.93,2.05,5.95,4.53,3.74,9.12l-1.22-0.52
						c1.2,12.9-3.66,18.43-6.89,32.93l5.68-1.07c-0.76,3.11-2.54,3.77-3.97,5.23c8.62,3.57,0.49-8.75,9.99-5.49
						c-11.57,4.13-0.18,21.96-13.32,24.76c-0.07,4.79,6.58-1.4,6.5,3.39l-3.56,1.27l4.58,1.21c-0.76,3.14-5.2,4.73-8.22,4.84
						c0.36-0.76-0.84-2.17-1.1-2.98c-4.19,4.07,1.43,11.49,0.06,12.89l2.19-4.6c3.33,13.08-1.34,29.04,5.89,41.68l2.68-0.96
						c4.96,9.65-2.95,7.73-0.65,18.32l-0.64-0.38c2.67,2.12,4.02,4.95,3.72,7.85c-3.14-2.67-6.11,5.03-9.58,1.52
						c5.33,10.46,4.18,5.17,14.15,12.08l-4.45,1.59c4.02,2.35,6.15,2.55,7.3,7.84c-3.82-4.34-6.78,3.38-11.83-1.48
						c-9.73,11.1,9.83,16.48-4.41,21.58c12.32,5.1,6.84-9.61,9.48-6.75c4.02-2.39,9.21,4.21,7.97,7.69
						c-0.27,3.55-15.75,6.03-15.52,14.95c0.06-0.89-0.87-0.95-0.82-1.83c-3.14,3.34,4.25,6.54-0.85,10.64
						c7.45,2.3-0.43,5.32,9.07,5.98l-2.2-8.18c2.48,4.64,13.6,8.99,8.21,16.63c-1.92-0.6-4.44-2.87-5.84-4.43
						c-2.8,2.23,1.86,4.3-1.02,6.62c-9.51-0.66-2.07-9.94-9.32-14.91c-4.01,2.4,6.88,9.4-3.41,6.9c13.09,3.59-1.65,8.79,8.34,14.83
						l-5.7-0.4c0.9,0.96,3.59,2.94,3.44,4.7l-7.38-3.18c6.3,4.89-5.51,9.43-2.08,14.12c-0.18-9.82,6.86-2.2,11.02-6.36
						c7.62,12.11-14.9,6.97-12.16,20.53c-0.8-1.84,3.42-6.89,6.06-4.02c-1.17,2.58-3.36,5.99-6.35,7.58
						c1.18,8.99,5.86-1.38,9.36,2.45c-6.94,3.06,2.82,4.41,5.05,8.35l-5.79,0.03c-3.71,10.24,12.06,2.71,7.58,11.93l-8.03-3.9
						l2.07,4.81l-6.59-0.99c4.89,5.23,3.62,6.86,1.77,11.98c4.08-1.19,10.51,0.67,10.69,5.2c-3.44,3.09-5.5-1.73-4.68,4.7
						c-3.62-1.45-8.17-3.04-2.84-5.84c-1.89-0.29-3.63-1.43-5.5-1.73c-3.95,3.33-0.9,8.37-0.85,10.7c0.22-0.9,0.53-1.97,1.35-2.52
						l8.02,9.32c-2.17,1.47-3.92,0.3-5.63-0.85c0.63,1.89,3.29,3.19,3.78,5.97c-4.71-0.72-9.56-0.55-11.78-4.48l5.22,8.88
						c-2.04,0.59-5.62,4.56-7.35,3.4c-2.77,4.92,9.13,12.08,5.48,18.6c0.91,0.34,1.79,1.02,2.46,2.41
						c-1.07,6.13-6.84,11.57-0.39,18.84l-8.44,4.13c1.92,5.69,10.63-5.58,13.81,3.9c2.69,6.71-7.2,2.51-9.55,4.86
						c4.25,3.34,12.91,9.14,6.04,15.31C-1314.25,439.53-1313,437.93-1313.62,436.02z M-1309.89,506.25
						c-1.21-1.36-4.96-4.07-1.55-5.07C-1304.8,502.73-1307.98,503.93-1309.89,506.25z M-1295.95,613c-1.92-1.01-0.97-2.58,1.23-4.34
						C-1294.25,609.94-1294.46,611.39-1295.95,613z M-1255.64,910.38c-0.09-0.06-0.16-0.1-0.28-0.15
						C-1253.66,907.2-1254.56,908.27-1255.64,910.38z M-1258.15,916.68c0.81,0.63,1.61,0.59,2.42,0.32
						c-1.47-0.44-1.56-1.86-1.15-3.47C-1258.4,913.98-1259.45,914.8-1258.15,916.68z M-1260.43,239.81l-1.52,1.23
						C-1263.61,238.27-1262.11,239.04-1260.43,239.81z"/>
					<path class="st1" d="M-1303.87,600.9c0.98-0.39,2.06-0.49,3.15-0.58C-1301.69,599.78-1302.82,599.77-1303.87,600.9z"/>
					<path class="st1" d="M-1316.66,392.35c0.05-0.07,0.03-0.14,0.06-0.21c-0.35-0.12-0.7-0.18-1.04-0.21L-1316.66,392.35z"/>
					<path class="st1" d="M-1307.24,819.05c0.83-1.3,1.89-2.02,2.99-2.5C-1305.67,816.47-1306.86,817.06-1307.24,819.05z"/>
					<path class="st1" d="M-1248.32,950.08l-1.51-4.04c0.29,1.95-0.98,2.65-1.9,3.64C-1250.37,949.59-1248.41,948.82-1248.32,950.08
						z"/>
					<path class="st1" d="M-1284.14,985.13c0.71,0.59,0.08,1.25,0.8,1.83l2.69-0.16C-1280.83,984.28-1283,982.53-1284.14,985.13z"/>
					<path class="st1" d="M-1267.55,953.82c-4.87,0.32-3.22,2.85-2.31,5.68c-0.02-0.17-0.06-0.33,0-0.5
						C-1263.05,959.83-1265.31,956.82-1267.55,953.82z"/>
					<path class="st1" d="M-1269.7,960.16c0.23,0.87,0.36,1.76,0.12,2.61C-1266.85,963.1-1269.01,961.71-1269.7,960.16z"/>
					<path class="st1" d="M-1254.92,924.68c-1.25,1.34,6.23,0.84,4.24,1.6C-1244.48,927.77-1258.18,917.34-1254.92,924.68z"/>
					<polygon class="st1" points="-1283.6,956.11 -1277.58,955.1 -1282.43,953.51 					"/>
					<path class="st1" d="M-1279.18,933.78l-1.66,4.52c1.01-0.07,1.6,0.51,2.05,1.21C-1278.6,936.72-1277.4,933.67-1279.18,933.78z"
						/>
					<path class="st1" d="M-1278.8,939.51c-0.12,1.45,0.01,2.83,1,3.64C-1277.86,942.36-1278.06,940.67-1278.8,939.51z"/>
					<polygon class="st1" points="-1285.4,949.93 -1284.15,948.6 -1283.71,945.41 					"/>
					<path class="st1" d="M-1278.02,885.2l-1.72-4.93c-2.06-0.5-3.32,0.84-2.5,2.68C-1280.81,884.13-1280.01,885.96-1278.02,885.2z"
						/>
					<path class="st1" d="M-1294.49,900.12c1.25-1.33,2.59-1.42,4.57-2.18l-7.45-0.15L-1294.49,900.12z"/>
					<path class="st1" d="M-1296.23,885.73c-2.07-0.49-5.94-7.16-5.47-0.91C-1299.64,885.33-1297.93,890.27-1296.23,885.73z"/>
					<polygon class="st1" points="-1286.8,811.42 -1286.71,812.68 -1274.48,812.5 					"/>
					<path class="st1" d="M-1316.04,745.92c-2.93,5.84,7.54,1.39,3.89,6.67c2.89,1.37,2.98-4.32,5.48-2.91
						C-1309.72,746.15-1308,744.3-1316.04,745.92z"/>
					<path class="st1" d="M-1306.67,749.68c0.48,0.57,1.07,1.16,1.86,1.8C-1305.58,750.46-1306.16,749.98-1306.67,749.68z"/>
					<polygon class="st1" points="-1254.23,10.36 -1251.68,6.6 -1255.79,9.02 					"/>
					<path class="st1" d="M-1263.3,3.14l7.79-0.89l-7.05-2.26C-1262.21,0.85-1261.54,2.5-1263.3,3.14z"/>
					<path class="st1" d="M-1325.58,516.69l1.88,0.29c2.03-0.58,2.18-1.46,2.5-3.22L-1325.58,516.69z"/>
					<polygon class="st1" points="-1319.75,465.72 -1319.9,466.59 -1312.86,464.96 					"/>
					<path class="st1" d="M-1328.73,422.94c-0.29,1.75,1.28,3.8,0.98,5.55C-1329.02,424.69-1319.95,422.47-1328.73,422.94z"/>
				</g>
			</g>
		</g>
	</g>
</g>
</svg>
